<?xml version="1.0" encoding="UTF-8" standalone="no"?>
<!DOCTYPE svg PUBLIC "-//W3C//DTD SVG 1.1//EN" "http://www.w3.org/Graphics/SVG/1.1/DTD/svg11.dtd">
<svg width="100%" height="100%" viewBox="0 0 75 75" version="1.1" xmlns="http://www.w3.org/2000/svg" xmlns:xlink="http://www.w3.org/1999/xlink" xml:space="preserve" xmlns:serif="http://www.serif.com/" style="fill-rule:evenodd;clip-rule:evenodd;stroke-linejoin:round;stroke-miterlimit:2;">
    <g transform="matrix(1,0,0,1,-1180,0)">
        <g id="Artboard2" transform="matrix(0.0694444,0,0,0.0694444,1098.06,0)">
            <rect x="1180" y="0" width="1080" height="1080" style="fill:none;"/>
            <clipPath id="_clip1">
                <rect x="1180" y="0" width="1080" height="1080"/>
            </clipPath>
            <g clip-path="url(#_clip1)">
                <g transform="matrix(1.71032,0,0,1.71032,-718.757,-23.1418)">
                    <circle cx="1425.91" cy="329.261" r="315.731" style="fill:rgb(237,80,39);"/>
                </g>
                <g transform="matrix(587.439,0,0,587.439,1310.03,625.346)">
                    <path d="M0.286,0.007C0.208,0.007 0.149,-0.016 0.108,-0.062C0.067,-0.108 0.047,-0.174 0.047,-0.261C0.047,-0.348 0.067,-0.415 0.108,-0.461C0.149,-0.507 0.208,-0.53 0.286,-0.53C0.363,-0.53 0.422,-0.507 0.463,-0.461C0.503,-0.415 0.523,-0.348 0.523,-0.261C0.523,-0.174 0.503,-0.107 0.463,-0.062C0.422,-0.016 0.363,0.007 0.286,0.007ZM0.285,-0.094C0.322,-0.094 0.35,-0.108 0.368,-0.136C0.385,-0.163 0.394,-0.205 0.394,-0.262C0.394,-0.318 0.385,-0.36 0.368,-0.388C0.35,-0.415 0.322,-0.429 0.285,-0.429C0.248,-0.429 0.22,-0.415 0.202,-0.388C0.184,-0.36 0.175,-0.318 0.175,-0.262C0.175,-0.205 0.184,-0.163 0.202,-0.136C0.22,-0.108 0.248,-0.094 0.285,-0.094Z" style="fill:white;fill-rule:nonzero;"/>
                </g>
                <g transform="matrix(584.75,56.1454,-56.1454,584.75,1613.69,747.871)">
                    <path d="M0.21,0.007C0.167,0.007 0.133,-0.005 0.108,-0.03C0.083,-0.054 0.07,-0.093 0.07,-0.146L0.07,-0.725C0.07,-0.744 0.088,-0.753 0.123,-0.753L0.142,-0.753C0.177,-0.753 0.195,-0.744 0.195,-0.725L0.195,-0.148C0.195,-0.129 0.199,-0.115 0.206,-0.107C0.213,-0.098 0.224,-0.094 0.238,-0.094C0.245,-0.094 0.251,-0.095 0.257,-0.096C0.263,-0.097 0.267,-0.098 0.27,-0.098C0.278,-0.098 0.285,-0.09 0.29,-0.073C0.295,-0.055 0.298,-0.043 0.298,-0.035C0.298,-0.007 0.269,0.007 0.21,0.007Z" style="fill:white;fill-rule:nonzero;"/>
                </g>
                <g transform="matrix(-584.75,-56.1454,56.1454,-584.75,1817.58,251.727)">
                    <path d="M0.21,0.007C0.167,0.007 0.133,-0.005 0.108,-0.03C0.083,-0.054 0.07,-0.093 0.07,-0.146L0.07,-0.725C0.07,-0.744 0.088,-0.753 0.123,-0.753L0.142,-0.753C0.177,-0.753 0.195,-0.744 0.195,-0.725L0.195,-0.148C0.195,-0.129 0.199,-0.115 0.206,-0.107C0.213,-0.098 0.224,-0.094 0.238,-0.094C0.245,-0.094 0.251,-0.095 0.257,-0.096C0.263,-0.097 0.267,-0.098 0.27,-0.098C0.278,-0.098 0.285,-0.09 0.29,-0.073C0.295,-0.055 0.298,-0.043 0.298,-0.035C0.298,-0.007 0.269,0.007 0.21,0.007Z" style="fill:white;fill-rule:nonzero;"/>
                </g>
                <g transform="matrix(587.439,0,0,587.439,1795.13,625.346)">
                    <path d="M0.286,0.007C0.208,0.007 0.149,-0.016 0.108,-0.062C0.067,-0.108 0.047,-0.174 0.047,-0.261C0.047,-0.348 0.067,-0.415 0.108,-0.461C0.149,-0.507 0.208,-0.53 0.286,-0.53C0.363,-0.53 0.422,-0.507 0.463,-0.461C0.503,-0.415 0.523,-0.348 0.523,-0.261C0.523,-0.174 0.503,-0.107 0.463,-0.062C0.422,-0.016 0.363,0.007 0.286,0.007ZM0.285,-0.094C0.322,-0.094 0.35,-0.108 0.368,-0.136C0.385,-0.163 0.394,-0.205 0.394,-0.262C0.394,-0.318 0.385,-0.36 0.368,-0.388C0.35,-0.415 0.322,-0.429 0.285,-0.429C0.248,-0.429 0.22,-0.415 0.202,-0.388C0.184,-0.36 0.175,-0.318 0.175,-0.262C0.175,-0.205 0.184,-0.163 0.202,-0.136C0.22,-0.108 0.248,-0.094 0.285,-0.094Z" style="fill:white;fill-rule:nonzero;"/>
                </g>
                <g transform="matrix(2.13435,-0.793601,0.793601,2.13435,-2436.18,741.062)">
                    <g transform="matrix(0.657951,0.753061,-0.753061,0.657951,1073.9,-1001.51)">
                        <text x="1639.43px" y="681.406px" style="font-family:'Asap-Regular', 'Asap', sans-serif;font-size:28px;fill:white;">T</text>
                    </g>
                    <g transform="matrix(0.785939,0.618304,-0.618304,0.785939,781.723,-871.714)">
                        <text x="1649.81px" y="693.127px" style="font-family:'Asap-Regular', 'Asap', sans-serif;font-size:28px;fill:white;">a</text>
                    </g>
                    <g transform="matrix(0.868397,0.49587,-0.49587,0.868397,567.472,-732.056)">
                        <text x="1662.9px" y="703.065px" style="font-family:'Asap-Regular', 'Asap', sans-serif;font-size:28px;fill:white;">s</text>
                    </g>
                    <g transform="matrix(0.915415,0.402511,-0.402511,0.915415,427.075,-613.803)">
                        <text x="1673.98px" y="709.251px" style="font-family:'Asap-Regular', 'Asap', sans-serif;font-size:28px;fill:white;">t</text>
                    </g>
                    <g transform="matrix(0.954184,0.29922,-0.29922,0.954184,290.677,-471.109)">
                        <text x="1683.73px" y="713.639px" style="font-family:'Asap-Regular', 'Asap', sans-serif;font-size:28px;fill:white;">e</text>
                    </g>
                    <g transform="matrix(0.99045,0.137873,-0.137873,0.99045,115.557,-228.461)">
                        <text x="1706.91px" y="719.906px" style="font-family:'Asap-Regular', 'Asap', sans-serif;font-size:28px;fill:white;">t</text>
                    </g>
                    <g transform="matrix(0.999613,0.0278038,-0.0278038,0.999613,20.7248,-47.4746)">
                        <text x="1717.52px" y="721.512px" style="font-family:'Asap-Regular', 'Asap', sans-serif;font-size:28px;fill:white;">h</text>
                    </g>
                    <g transform="matrix(0.994026,-0.109145,0.109145,0.994026,-68.4311,193.625)">
                        <text x="1734.51px" y="721.915px" style="font-family:'Asap-Regular', 'Asap', sans-serif;font-size:28px;fill:white;">e</text>
                    </g>
                    <g transform="matrix(0.954456,-0.29835,0.29835,0.954456,-134.209,557.29)">
                        <text x="1758.27px" y="718.238px" style="font-family:'Asap-Regular', 'Asap', sans-serif;font-size:28px;fill:white;">f</text>
                    </g>
                    <g transform="matrix(0.919632,-0.39278,0.39278,0.919632,-138.824,751.915)">
                        <text x="1768px" y="715.194px" style="font-family:'Asap-Regular', 'Asap', sans-serif;font-size:28px;fill:white;">l</text>
                    </g>
                    <g transform="matrix(0.866412,-0.49933,0.49933,0.866412,-117.988,982.269)">
                        <text x="1776.79px" y="711.643px" style="font-family:'Asap-Regular', 'Asap', sans-serif;font-size:28px;fill:white;">a</text>
                    </g>
                    <g transform="matrix(0.772085,-0.635519,0.635519,0.772085,-38.7901,1298.44)">
                        <text x="1790.89px" y="703.302px" style="font-family:'Asap-Regular', 'Asap', sans-serif;font-size:28px;fill:white;">v</text>
                    </g>
                    <g transform="matrix(0.657101,-0.753802,0.753802,0.657101,94.9095,1596.5)">
                        <text x="1802.27px" y="693.93px" style="font-family:'Asap-Regular', 'Asap', sans-serif;font-size:28px;fill:white;">o</text>
                    </g>
                    <g transform="matrix(0.539959,-0.841691,0.841691,0.539959,261.072,1839.47)">
                        <text x="1813.29px" y="680.908px" style="font-family:'Asap-Regular', 'Asap', sans-serif;font-size:28px;fill:white;">r</text>
                    </g>
                </g>
            </g>
        </g>
    </g>
</svg>
