<?xml version="1.0" encoding="UTF-8" standalone="no"?>
<!DOCTYPE svg PUBLIC "-//W3C//DTD SVG 1.1//EN" "http://www.w3.org/Graphics/SVG/1.1/DTD/svg11.dtd">
<svg width="100%" height="100%" viewBox="0 0 659 441" version="1.1" xmlns="http://www.w3.org/2000/svg" xmlns:xlink="http://www.w3.org/1999/xlink" xml:space="preserve" xmlns:serif="http://www.serif.com/" style="fill-rule:evenodd;clip-rule:evenodd;stroke-linejoin:round;stroke-miterlimit:2;">
    <g transform="matrix(1,0,0,1,-4708.3,-507.704)">
        <g id="Logo-final" serif:id="Logo final" transform="matrix(0.609872,0,0,0.407986,2549.35,507.704)">
            <rect x="3540" y="0" width="1080" height="1080" style="fill:none;"/>
            <g transform="matrix(237.222,-110.96,74.229,354.608,3728.33,652.779)">
                <path d="M0.195,-0.446C0.201,-0.451 0.204,-0.453 0.205,-0.454C0.21,-0.459 0.212,-0.461 0.212,-0.462C0.212,-0.463 0.212,-0.463 0.213,-0.464C0.219,-0.47 0.222,-0.473 0.223,-0.474C0.223,-0.474 0.223,-0.475 0.223,-0.477C0.225,-0.477 0.227,-0.479 0.228,-0.48C0.229,-0.482 0.23,-0.484 0.231,-0.486C0.237,-0.492 0.24,-0.495 0.24,-0.495C0.241,-0.495 0.242,-0.496 0.242,-0.497C0.248,-0.504 0.253,-0.509 0.258,-0.513C0.264,-0.518 0.269,-0.523 0.272,-0.527C0.276,-0.529 0.279,-0.53 0.281,-0.532C0.284,-0.534 0.287,-0.536 0.29,-0.537C0.297,-0.54 0.3,-0.541 0.3,-0.541C0.299,-0.541 0.299,-0.541 0.301,-0.541C0.303,-0.542 0.306,-0.543 0.307,-0.543C0.309,-0.543 0.31,-0.543 0.312,-0.544C0.319,-0.545 0.324,-0.546 0.325,-0.547C0.326,-0.548 0.327,-0.548 0.328,-0.549C0.335,-0.549 0.338,-0.55 0.339,-0.55C0.34,-0.551 0.341,-0.551 0.343,-0.551C0.345,-0.551 0.347,-0.552 0.349,-0.552C0.351,-0.552 0.352,-0.552 0.354,-0.554L0.364,-0.554C0.369,-0.553 0.373,-0.553 0.376,-0.553C0.382,-0.553 0.386,-0.554 0.387,-0.554C0.388,-0.555 0.389,-0.554 0.391,-0.554C0.396,-0.547 0.4,-0.542 0.401,-0.54C0.403,-0.538 0.404,-0.536 0.405,-0.534C0.407,-0.527 0.407,-0.523 0.408,-0.521C0.408,-0.519 0.408,-0.518 0.408,-0.517C0.409,-0.509 0.41,-0.504 0.411,-0.5C0.412,-0.495 0.413,-0.491 0.414,-0.489C0.414,-0.488 0.414,-0.486 0.414,-0.485C0.413,-0.483 0.413,-0.481 0.414,-0.479C0.415,-0.471 0.416,-0.466 0.416,-0.465C0.415,-0.464 0.415,-0.463 0.415,-0.462C0.415,-0.459 0.415,-0.455 0.416,-0.452C0.417,-0.448 0.418,-0.445 0.42,-0.443L0.42,-0.425C0.42,-0.418 0.419,-0.412 0.418,-0.406C0.412,-0.404 0.408,-0.403 0.407,-0.403C0.405,-0.403 0.404,-0.404 0.402,-0.405C0.398,-0.406 0.395,-0.406 0.394,-0.406C0.392,-0.406 0.391,-0.407 0.391,-0.407C0.387,-0.406 0.384,-0.405 0.383,-0.406C0.382,-0.406 0.381,-0.406 0.38,-0.406L0.369,-0.403C0.361,-0.401 0.355,-0.399 0.352,-0.398C0.349,-0.398 0.346,-0.397 0.343,-0.396L0.325,-0.39C0.322,-0.388 0.319,-0.387 0.316,-0.386C0.314,-0.384 0.311,-0.383 0.308,-0.383C0.3,-0.38 0.296,-0.378 0.295,-0.378C0.294,-0.378 0.293,-0.377 0.292,-0.376C0.287,-0.373 0.284,-0.372 0.283,-0.372C0.283,-0.372 0.282,-0.372 0.28,-0.371C0.278,-0.37 0.277,-0.368 0.275,-0.367C0.273,-0.366 0.271,-0.365 0.268,-0.364C0.263,-0.359 0.26,-0.356 0.26,-0.356C0.255,-0.353 0.252,-0.351 0.251,-0.35C0.25,-0.348 0.248,-0.347 0.247,-0.346C0.246,-0.345 0.244,-0.344 0.242,-0.343C0.236,-0.337 0.231,-0.333 0.229,-0.331C0.227,-0.328 0.224,-0.326 0.222,-0.323C0.216,-0.319 0.212,-0.316 0.211,-0.313C0.208,-0.309 0.207,-0.306 0.207,-0.305C0.206,-0.303 0.206,-0.302 0.205,-0.301C0.204,-0.299 0.203,-0.298 0.202,-0.295C0.201,-0.293 0.199,-0.291 0.197,-0.29C0.196,-0.285 0.195,-0.282 0.194,-0.281C0.194,-0.28 0.193,-0.279 0.191,-0.277C0.193,-0.275 0.193,-0.272 0.192,-0.27C0.192,-0.268 0.191,-0.265 0.191,-0.263C0.191,-0.258 0.191,-0.255 0.19,-0.254C0.19,-0.253 0.189,-0.251 0.189,-0.25C0.191,-0.243 0.191,-0.24 0.191,-0.24C0.191,-0.24 0.19,-0.24 0.189,-0.238C0.19,-0.235 0.19,-0.231 0.188,-0.228C0.188,-0.222 0.189,-0.218 0.189,-0.218C0.189,-0.217 0.189,-0.216 0.189,-0.216C0.19,-0.209 0.19,-0.203 0.19,-0.2C0.19,-0.198 0.19,-0.195 0.19,-0.193C0.19,-0.191 0.19,-0.19 0.19,-0.188C0.192,-0.182 0.192,-0.178 0.192,-0.178C0.192,-0.177 0.191,-0.176 0.191,-0.175L0.192,-0.158C0.192,-0.15 0.192,-0.145 0.192,-0.141C0.192,-0.138 0.192,-0.133 0.192,-0.129L0.192,-0.115C0.192,-0.111 0.193,-0.107 0.193,-0.103C0.193,-0.099 0.193,-0.096 0.193,-0.095C0.193,-0.093 0.193,-0.092 0.193,-0.091C0.194,-0.083 0.194,-0.078 0.194,-0.076C0.194,-0.074 0.195,-0.073 0.195,-0.071C0.195,-0.067 0.196,-0.063 0.196,-0.061C0.198,-0.056 0.198,-0.053 0.198,-0.053C0.197,-0.052 0.197,-0.051 0.197,-0.05L0.201,-0.039C0.202,-0.035 0.202,-0.03 0.201,-0.026C0.201,-0.022 0.2,-0.019 0.198,-0.015C0.196,-0.007 0.194,-0.003 0.192,-0.002C0.188,0.001 0.185,0.002 0.183,0.003C0.181,0.004 0.18,0.004 0.179,0.005C0.175,0.007 0.172,0.008 0.17,0.009C0.169,0.01 0.167,0.011 0.164,0.012C0.163,0.012 0.161,0.011 0.158,0.01C0.156,0.009 0.153,0.009 0.15,0.009C0.147,0.009 0.144,0.009 0.141,0.01C0.138,0.01 0.135,0.01 0.132,0.01C0.125,0.008 0.121,0.008 0.12,0.008C0.118,0.009 0.117,0.009 0.115,0.009L0.102,0.009L0.091,0.01C0.084,0.011 0.08,0.012 0.08,0.012C0.08,0.013 0.08,0.013 0.079,0.013C0.07,0.011 0.064,0.01 0.061,0.009C0.057,0.007 0.054,0.006 0.051,0.005C0.049,-0.002 0.048,-0.006 0.047,-0.006C0.046,-0.007 0.046,-0.007 0.045,-0.008C0.042,-0.017 0.041,-0.022 0.042,-0.023C0.043,-0.025 0.042,-0.026 0.041,-0.027C0.042,-0.031 0.043,-0.034 0.042,-0.037C0.042,-0.04 0.042,-0.043 0.042,-0.046C0.043,-0.051 0.044,-0.055 0.044,-0.058C0.045,-0.063 0.045,-0.069 0.045,-0.075L0.045,-0.091L0.046,-0.108C0.047,-0.11 0.047,-0.112 0.046,-0.114C0.046,-0.116 0.046,-0.118 0.046,-0.121C0.047,-0.126 0.048,-0.13 0.048,-0.133C0.049,-0.136 0.049,-0.14 0.048,-0.145C0.048,-0.149 0.048,-0.153 0.048,-0.156C0.049,-0.163 0.05,-0.169 0.049,-0.172C0.049,-0.175 0.049,-0.178 0.049,-0.182L0.05,-0.194C0.049,-0.203 0.049,-0.209 0.049,-0.21C0.05,-0.212 0.05,-0.214 0.05,-0.217L0.05,-0.254L0.049,-0.271L0.049,-0.288C0.049,-0.293 0.049,-0.295 0.049,-0.296C0.05,-0.297 0.05,-0.299 0.05,-0.3C0.049,-0.302 0.049,-0.305 0.048,-0.306C0.048,-0.308 0.048,-0.31 0.049,-0.313C0.05,-0.317 0.051,-0.322 0.051,-0.327C0.05,-0.331 0.05,-0.334 0.05,-0.337C0.051,-0.34 0.05,-0.341 0.049,-0.343C0.049,-0.35 0.05,-0.354 0.05,-0.355C0.051,-0.356 0.051,-0.357 0.051,-0.358C0.05,-0.366 0.05,-0.371 0.051,-0.374C0.051,-0.377 0.051,-0.381 0.051,-0.384C0.048,-0.392 0.048,-0.398 0.049,-0.4L0.047,-0.413L0.05,-0.424C0.05,-0.428 0.05,-0.431 0.049,-0.433C0.049,-0.435 0.049,-0.438 0.05,-0.441C0.049,-0.452 0.049,-0.458 0.049,-0.459C0.048,-0.465 0.048,-0.47 0.047,-0.471C0.046,-0.473 0.046,-0.474 0.046,-0.476C0.046,-0.483 0.046,-0.488 0.045,-0.49C0.044,-0.491 0.044,-0.493 0.044,-0.494C0.045,-0.497 0.045,-0.499 0.044,-0.502C0.044,-0.505 0.043,-0.507 0.042,-0.509C0.041,-0.513 0.04,-0.516 0.04,-0.518C0.04,-0.52 0.04,-0.521 0.041,-0.522C0.042,-0.526 0.043,-0.529 0.044,-0.531C0.045,-0.534 0.045,-0.537 0.044,-0.54C0.051,-0.548 0.056,-0.552 0.058,-0.553C0.06,-0.554 0.062,-0.555 0.064,-0.555C0.066,-0.556 0.068,-0.556 0.069,-0.558C0.073,-0.556 0.076,-0.556 0.078,-0.556C0.081,-0.556 0.084,-0.557 0.087,-0.557L0.106,-0.556C0.11,-0.556 0.112,-0.557 0.115,-0.558C0.117,-0.558 0.119,-0.559 0.122,-0.559C0.129,-0.56 0.136,-0.56 0.143,-0.559C0.145,-0.559 0.147,-0.559 0.149,-0.559C0.151,-0.559 0.154,-0.559 0.156,-0.559C0.163,-0.558 0.167,-0.558 0.168,-0.558C0.17,-0.557 0.173,-0.557 0.178,-0.559C0.183,-0.56 0.187,-0.56 0.189,-0.558C0.195,-0.554 0.198,-0.551 0.198,-0.549C0.199,-0.548 0.201,-0.547 0.203,-0.547C0.203,-0.544 0.204,-0.541 0.205,-0.538C0.206,-0.535 0.207,-0.533 0.207,-0.53C0.204,-0.521 0.203,-0.514 0.204,-0.511C0.201,-0.508 0.2,-0.505 0.2,-0.501C0.2,-0.497 0.199,-0.494 0.197,-0.491C0.197,-0.487 0.197,-0.484 0.196,-0.482C0.196,-0.48 0.195,-0.478 0.195,-0.476C0.196,-0.469 0.196,-0.463 0.195,-0.458C0.194,-0.454 0.194,-0.45 0.195,-0.446Z" style="fill:rgb(82,166,231);fill-rule:nonzero;"/>
            </g>
            <g transform="matrix(237.222,-110.96,74.229,354.608,3813.65,704.52)">
                <path d="M0.549,-0.048C0.546,-0.043 0.544,-0.04 0.543,-0.039C0.542,-0.038 0.541,-0.036 0.541,-0.034C0.538,-0.033 0.535,-0.031 0.532,-0.029C0.53,-0.027 0.527,-0.024 0.523,-0.021C0.52,-0.02 0.517,-0.019 0.515,-0.017C0.513,-0.015 0.511,-0.014 0.509,-0.013C0.503,-0.011 0.498,-0.009 0.495,-0.006C0.493,-0.005 0.491,-0.004 0.49,-0.003C0.488,-0.002 0.487,-0.001 0.485,-0C0.48,0.001 0.477,0.002 0.476,0.003C0.474,0.004 0.473,0.004 0.472,0.005L0.458,0.009C0.453,0.011 0.45,0.013 0.448,0.014C0.445,0.014 0.443,0.014 0.439,0.014C0.432,0.014 0.427,0.015 0.427,0.015C0.426,0.015 0.425,0.016 0.424,0.016C0.418,0.012 0.414,0.011 0.413,0.011C0.412,0.012 0.41,0.011 0.409,0.01C0.407,0.008 0.406,0.006 0.404,0.004C0.403,0.002 0.401,0 0.399,-0.002C0.397,-0.008 0.396,-0.012 0.396,-0.013C0.395,-0.021 0.392,-0.026 0.39,-0.03C0.388,-0.039 0.386,-0.047 0.383,-0.052L0.371,-0.048C0.361,-0.044 0.353,-0.04 0.349,-0.036C0.345,-0.033 0.341,-0.031 0.339,-0.029C0.336,-0.028 0.333,-0.027 0.332,-0.027C0.33,-0.027 0.328,-0.027 0.327,-0.025C0.319,-0.021 0.315,-0.019 0.315,-0.019L0.291,-0.01L0.276,-0.004C0.271,-0.003 0.267,-0.001 0.265,0.001C0.263,0.003 0.26,0.004 0.256,0.004C0.25,0.006 0.244,0.008 0.239,0.012C0.232,0.014 0.226,0.016 0.222,0.016C0.218,0.016 0.214,0.017 0.209,0.019C0.202,0.021 0.198,0.022 0.197,0.021C0.195,0.021 0.193,0.022 0.191,0.022C0.189,0.023 0.188,0.023 0.186,0.023C0.18,0.023 0.176,0.023 0.173,0.023C0.171,0.023 0.169,0.023 0.168,0.022C0.161,0.02 0.156,0.019 0.155,0.019C0.153,0.019 0.152,0.018 0.15,0.018C0.149,0.017 0.147,0.016 0.145,0.015C0.143,0.014 0.141,0.013 0.14,0.012C0.136,0.012 0.134,0.011 0.131,0.009C0.129,0.006 0.127,0.004 0.125,0.003C0.118,-0.002 0.115,-0.004 0.114,-0.004C0.114,-0.005 0.113,-0.006 0.111,-0.007C0.105,-0.011 0.102,-0.014 0.102,-0.014C0.102,-0.014 0.101,-0.014 0.101,-0.015C0.095,-0.021 0.092,-0.025 0.093,-0.025C0.09,-0.027 0.088,-0.028 0.086,-0.03C0.085,-0.032 0.083,-0.034 0.081,-0.036C0.077,-0.039 0.075,-0.042 0.074,-0.043C0.073,-0.044 0.072,-0.045 0.07,-0.046C0.07,-0.05 0.068,-0.053 0.066,-0.055C0.064,-0.057 0.062,-0.059 0.06,-0.062C0.058,-0.065 0.057,-0.068 0.057,-0.07C0.056,-0.072 0.055,-0.075 0.054,-0.077C0.052,-0.083 0.05,-0.086 0.049,-0.087C0.049,-0.094 0.049,-0.098 0.049,-0.099C0.048,-0.099 0.048,-0.1 0.048,-0.102C0.048,-0.104 0.048,-0.106 0.048,-0.108C0.049,-0.11 0.049,-0.112 0.048,-0.114C0.047,-0.119 0.046,-0.122 0.046,-0.124C0.047,-0.126 0.047,-0.128 0.047,-0.13C0.046,-0.134 0.045,-0.138 0.044,-0.143C0.043,-0.147 0.043,-0.151 0.043,-0.155L0.046,-0.166C0.047,-0.17 0.046,-0.174 0.045,-0.178C0.044,-0.182 0.044,-0.186 0.045,-0.189C0.045,-0.191 0.045,-0.193 0.046,-0.195C0.047,-0.196 0.048,-0.198 0.048,-0.2C0.047,-0.203 0.047,-0.206 0.047,-0.208C0.048,-0.211 0.048,-0.213 0.049,-0.214C0.05,-0.218 0.051,-0.221 0.052,-0.221C0.052,-0.222 0.053,-0.222 0.054,-0.224C0.056,-0.231 0.058,-0.235 0.059,-0.235C0.063,-0.242 0.066,-0.246 0.066,-0.247C0.073,-0.256 0.077,-0.261 0.078,-0.263C0.083,-0.267 0.087,-0.27 0.092,-0.27L0.1,-0.279C0.105,-0.284 0.109,-0.286 0.109,-0.286C0.115,-0.29 0.118,-0.292 0.118,-0.292C0.118,-0.293 0.118,-0.293 0.119,-0.294C0.124,-0.297 0.127,-0.299 0.128,-0.299C0.129,-0.299 0.13,-0.299 0.13,-0.301C0.139,-0.304 0.145,-0.306 0.146,-0.308C0.148,-0.31 0.151,-0.31 0.153,-0.309C0.159,-0.314 0.163,-0.317 0.164,-0.317C0.165,-0.317 0.167,-0.318 0.168,-0.318C0.174,-0.322 0.177,-0.325 0.177,-0.325C0.177,-0.326 0.177,-0.326 0.178,-0.326C0.18,-0.327 0.182,-0.328 0.184,-0.329C0.186,-0.329 0.188,-0.33 0.19,-0.332C0.196,-0.335 0.2,-0.336 0.201,-0.336C0.202,-0.336 0.204,-0.337 0.205,-0.338C0.212,-0.34 0.216,-0.341 0.218,-0.342C0.219,-0.343 0.22,-0.344 0.222,-0.346C0.229,-0.348 0.233,-0.35 0.233,-0.351C0.237,-0.353 0.24,-0.354 0.241,-0.355C0.242,-0.356 0.243,-0.357 0.244,-0.357C0.25,-0.359 0.253,-0.36 0.254,-0.362C0.259,-0.364 0.263,-0.366 0.265,-0.369C0.267,-0.371 0.27,-0.373 0.273,-0.374C0.27,-0.382 0.267,-0.387 0.265,-0.39C0.263,-0.394 0.263,-0.397 0.263,-0.397C0.264,-0.398 0.263,-0.399 0.263,-0.4C0.261,-0.404 0.257,-0.406 0.253,-0.406C0.249,-0.41 0.246,-0.412 0.245,-0.413C0.243,-0.414 0.242,-0.413 0.242,-0.411C0.241,-0.412 0.239,-0.413 0.237,-0.413C0.235,-0.412 0.233,-0.412 0.231,-0.412L0.215,-0.412C0.213,-0.412 0.211,-0.412 0.208,-0.413C0.202,-0.413 0.199,-0.413 0.199,-0.414C0.198,-0.414 0.198,-0.414 0.197,-0.414L0.187,-0.413C0.183,-0.413 0.181,-0.413 0.179,-0.413C0.177,-0.412 0.174,-0.412 0.17,-0.412C0.161,-0.411 0.157,-0.41 0.156,-0.411C0.155,-0.412 0.153,-0.412 0.15,-0.411C0.141,-0.409 0.137,-0.408 0.137,-0.407C0.133,-0.409 0.13,-0.41 0.126,-0.408C0.122,-0.407 0.118,-0.406 0.114,-0.405C0.11,-0.405 0.107,-0.405 0.105,-0.404C0.103,-0.404 0.101,-0.403 0.1,-0.403L0.081,-0.401C0.076,-0.404 0.073,-0.405 0.07,-0.405C0.066,-0.409 0.064,-0.411 0.063,-0.411C0.062,-0.411 0.062,-0.412 0.062,-0.413C0.057,-0.418 0.054,-0.422 0.053,-0.423C0.051,-0.424 0.05,-0.426 0.05,-0.428C0.048,-0.431 0.046,-0.433 0.045,-0.435C0.044,-0.437 0.044,-0.438 0.043,-0.44C0.042,-0.45 0.041,-0.456 0.04,-0.458C0.039,-0.461 0.039,-0.465 0.04,-0.468C0.04,-0.471 0.04,-0.475 0.041,-0.479C0.042,-0.484 0.041,-0.487 0.038,-0.489C0.039,-0.495 0.04,-0.498 0.039,-0.498C0.038,-0.498 0.038,-0.499 0.038,-0.5C0.037,-0.509 0.037,-0.516 0.036,-0.52C0.035,-0.523 0.035,-0.527 0.035,-0.53C0.036,-0.534 0.038,-0.538 0.041,-0.541C0.043,-0.544 0.045,-0.548 0.046,-0.551C0.052,-0.555 0.056,-0.557 0.056,-0.557C0.056,-0.557 0.057,-0.557 0.059,-0.558C0.065,-0.559 0.069,-0.56 0.069,-0.56C0.069,-0.56 0.07,-0.561 0.07,-0.561C0.077,-0.561 0.086,-0.561 0.097,-0.561C0.106,-0.559 0.111,-0.558 0.114,-0.558C0.116,-0.558 0.119,-0.558 0.122,-0.558C0.129,-0.558 0.133,-0.558 0.136,-0.557C0.141,-0.555 0.146,-0.555 0.149,-0.556C0.153,-0.556 0.157,-0.557 0.16,-0.557C0.166,-0.556 0.17,-0.556 0.171,-0.557C0.173,-0.557 0.174,-0.558 0.176,-0.558C0.184,-0.557 0.189,-0.557 0.19,-0.558C0.192,-0.558 0.193,-0.558 0.194,-0.558C0.199,-0.558 0.202,-0.559 0.204,-0.559C0.205,-0.559 0.207,-0.56 0.209,-0.56C0.212,-0.559 0.216,-0.559 0.219,-0.559C0.223,-0.559 0.227,-0.56 0.231,-0.56C0.244,-0.56 0.254,-0.561 0.262,-0.561C0.27,-0.561 0.278,-0.561 0.285,-0.56C0.292,-0.559 0.295,-0.559 0.296,-0.559C0.302,-0.558 0.306,-0.557 0.309,-0.556C0.311,-0.554 0.314,-0.554 0.318,-0.556C0.322,-0.552 0.327,-0.55 0.332,-0.552C0.335,-0.549 0.338,-0.548 0.34,-0.547C0.342,-0.546 0.343,-0.545 0.345,-0.544C0.352,-0.544 0.356,-0.542 0.358,-0.539C0.364,-0.534 0.366,-0.531 0.367,-0.531C0.367,-0.53 0.368,-0.53 0.368,-0.53C0.371,-0.527 0.374,-0.524 0.375,-0.522C0.376,-0.521 0.378,-0.519 0.379,-0.518C0.385,-0.512 0.388,-0.508 0.387,-0.507C0.387,-0.506 0.387,-0.506 0.389,-0.505C0.391,-0.499 0.394,-0.496 0.397,-0.495C0.4,-0.488 0.402,-0.484 0.403,-0.482C0.404,-0.481 0.405,-0.48 0.405,-0.479C0.409,-0.469 0.412,-0.465 0.413,-0.464L0.413,-0.457C0.413,-0.455 0.413,-0.453 0.414,-0.452C0.417,-0.445 0.418,-0.44 0.418,-0.437C0.42,-0.429 0.422,-0.424 0.423,-0.421C0.427,-0.413 0.429,-0.408 0.428,-0.406C0.428,-0.404 0.428,-0.402 0.429,-0.4C0.431,-0.396 0.432,-0.394 0.432,-0.392C0.432,-0.39 0.433,-0.389 0.435,-0.388L0.438,-0.377C0.44,-0.37 0.441,-0.367 0.441,-0.365C0.441,-0.364 0.442,-0.363 0.442,-0.361C0.446,-0.354 0.448,-0.348 0.448,-0.346C0.448,-0.343 0.449,-0.34 0.449,-0.337C0.452,-0.33 0.453,-0.327 0.452,-0.326C0.453,-0.319 0.453,-0.314 0.454,-0.312C0.455,-0.309 0.456,-0.307 0.457,-0.306C0.46,-0.297 0.462,-0.292 0.461,-0.29C0.461,-0.287 0.461,-0.285 0.462,-0.282C0.463,-0.277 0.464,-0.273 0.465,-0.27C0.466,-0.266 0.467,-0.263 0.467,-0.261C0.468,-0.258 0.468,-0.256 0.47,-0.253C0.473,-0.246 0.474,-0.242 0.474,-0.242C0.474,-0.242 0.474,-0.242 0.475,-0.241C0.476,-0.24 0.477,-0.238 0.478,-0.236C0.478,-0.234 0.479,-0.231 0.48,-0.229C0.483,-0.22 0.485,-0.215 0.485,-0.213C0.489,-0.205 0.49,-0.201 0.49,-0.201L0.502,-0.168C0.503,-0.163 0.504,-0.16 0.505,-0.159C0.506,-0.158 0.507,-0.157 0.508,-0.155C0.509,-0.153 0.51,-0.15 0.51,-0.146C0.511,-0.143 0.511,-0.14 0.513,-0.138C0.513,-0.136 0.514,-0.134 0.515,-0.132C0.516,-0.13 0.517,-0.128 0.519,-0.125C0.52,-0.118 0.521,-0.114 0.523,-0.112C0.525,-0.11 0.525,-0.107 0.525,-0.104C0.529,-0.096 0.532,-0.091 0.532,-0.09C0.533,-0.089 0.533,-0.087 0.533,-0.084C0.535,-0.08 0.537,-0.077 0.538,-0.076C0.539,-0.074 0.54,-0.073 0.541,-0.071C0.541,-0.066 0.542,-0.062 0.545,-0.06C0.548,-0.057 0.549,-0.053 0.549,-0.048ZM0.296,-0.266C0.291,-0.262 0.288,-0.26 0.286,-0.26C0.283,-0.26 0.282,-0.259 0.28,-0.259C0.274,-0.256 0.27,-0.254 0.269,-0.254C0.267,-0.254 0.266,-0.254 0.265,-0.253C0.256,-0.248 0.252,-0.245 0.251,-0.244C0.248,-0.242 0.246,-0.241 0.245,-0.24C0.243,-0.239 0.242,-0.238 0.24,-0.236C0.237,-0.235 0.234,-0.234 0.231,-0.232C0.228,-0.23 0.225,-0.228 0.223,-0.226C0.216,-0.224 0.211,-0.222 0.208,-0.217C0.205,-0.213 0.201,-0.209 0.195,-0.206C0.191,-0.201 0.189,-0.198 0.187,-0.197C0.185,-0.196 0.184,-0.195 0.184,-0.193C0.18,-0.186 0.178,-0.182 0.178,-0.18C0.176,-0.176 0.176,-0.173 0.175,-0.169C0.175,-0.166 0.175,-0.162 0.175,-0.157C0.176,-0.152 0.177,-0.149 0.176,-0.148C0.176,-0.147 0.176,-0.146 0.176,-0.145C0.177,-0.143 0.178,-0.14 0.178,-0.138C0.178,-0.136 0.178,-0.134 0.179,-0.132C0.181,-0.125 0.183,-0.122 0.184,-0.121C0.185,-0.12 0.186,-0.119 0.187,-0.118C0.192,-0.116 0.194,-0.114 0.195,-0.113C0.195,-0.112 0.196,-0.111 0.197,-0.111C0.199,-0.111 0.2,-0.11 0.202,-0.11C0.204,-0.11 0.206,-0.11 0.208,-0.109C0.217,-0.107 0.223,-0.107 0.227,-0.108C0.231,-0.109 0.234,-0.109 0.237,-0.109C0.239,-0.11 0.24,-0.111 0.242,-0.111C0.243,-0.112 0.245,-0.112 0.248,-0.112C0.249,-0.114 0.251,-0.114 0.253,-0.115C0.256,-0.115 0.258,-0.116 0.26,-0.117C0.262,-0.118 0.265,-0.119 0.268,-0.12C0.271,-0.121 0.274,-0.122 0.277,-0.123C0.284,-0.126 0.288,-0.128 0.29,-0.129C0.291,-0.13 0.293,-0.13 0.294,-0.13C0.298,-0.133 0.3,-0.135 0.301,-0.136C0.302,-0.136 0.303,-0.137 0.305,-0.138L0.314,-0.145C0.321,-0.149 0.325,-0.151 0.325,-0.151C0.326,-0.151 0.326,-0.151 0.327,-0.152C0.334,-0.154 0.337,-0.156 0.338,-0.156C0.339,-0.157 0.34,-0.158 0.341,-0.159C0.344,-0.166 0.344,-0.17 0.342,-0.173C0.341,-0.178 0.34,-0.183 0.339,-0.187C0.338,-0.19 0.336,-0.193 0.335,-0.196C0.334,-0.199 0.333,-0.202 0.333,-0.205C0.33,-0.213 0.328,-0.218 0.327,-0.22C0.326,-0.222 0.326,-0.223 0.326,-0.225C0.325,-0.23 0.324,-0.234 0.324,-0.236C0.323,-0.237 0.323,-0.239 0.322,-0.24C0.32,-0.248 0.318,-0.253 0.317,-0.254C0.317,-0.255 0.316,-0.257 0.316,-0.259C0.314,-0.263 0.312,-0.265 0.312,-0.267C0.312,-0.268 0.311,-0.269 0.31,-0.269C0.306,-0.269 0.304,-0.269 0.303,-0.268C0.301,-0.266 0.299,-0.266 0.296,-0.266Z" style="fill:rgb(82,166,231);fill-rule:nonzero;"/>
            </g>
            <g transform="matrix(247.47,-34.8246,23.2966,369.927,3947.79,641.944)">
                <path d="M0.379,-0.735C0.383,-0.731 0.385,-0.729 0.387,-0.727C0.388,-0.725 0.389,-0.723 0.389,-0.721C0.388,-0.714 0.388,-0.71 0.388,-0.708C0.388,-0.707 0.387,-0.705 0.386,-0.704L0.385,-0.693C0.383,-0.686 0.382,-0.682 0.382,-0.68C0.383,-0.678 0.382,-0.676 0.382,-0.674C0.379,-0.669 0.377,-0.666 0.377,-0.664C0.377,-0.662 0.377,-0.66 0.376,-0.658C0.373,-0.653 0.371,-0.649 0.371,-0.647C0.371,-0.645 0.371,-0.643 0.37,-0.641L0.368,-0.629C0.366,-0.622 0.364,-0.619 0.363,-0.619C0.362,-0.618 0.361,-0.618 0.361,-0.616C0.359,-0.61 0.358,-0.607 0.358,-0.605C0.358,-0.603 0.357,-0.602 0.355,-0.601C0.349,-0.599 0.345,-0.598 0.343,-0.596L0.324,-0.596C0.322,-0.596 0.32,-0.596 0.318,-0.596C0.316,-0.597 0.313,-0.596 0.31,-0.596C0.302,-0.595 0.297,-0.595 0.296,-0.595C0.295,-0.595 0.294,-0.595 0.293,-0.596C0.29,-0.595 0.286,-0.595 0.283,-0.595C0.279,-0.596 0.276,-0.595 0.272,-0.595C0.269,-0.595 0.266,-0.594 0.264,-0.594C0.261,-0.593 0.258,-0.592 0.256,-0.592C0.253,-0.591 0.249,-0.59 0.246,-0.59C0.243,-0.589 0.241,-0.588 0.239,-0.587C0.235,-0.581 0.233,-0.577 0.233,-0.576C0.233,-0.574 0.232,-0.573 0.23,-0.571C0.231,-0.565 0.232,-0.56 0.232,-0.555C0.232,-0.549 0.233,-0.545 0.234,-0.541C0.238,-0.54 0.242,-0.539 0.247,-0.54C0.251,-0.541 0.255,-0.541 0.26,-0.541C0.264,-0.54 0.267,-0.539 0.269,-0.54C0.27,-0.54 0.271,-0.54 0.272,-0.54C0.28,-0.54 0.285,-0.54 0.287,-0.541C0.29,-0.542 0.293,-0.542 0.296,-0.542C0.302,-0.541 0.307,-0.541 0.31,-0.542C0.312,-0.543 0.315,-0.543 0.318,-0.542C0.323,-0.541 0.326,-0.541 0.327,-0.542C0.328,-0.543 0.331,-0.543 0.334,-0.542C0.337,-0.541 0.34,-0.541 0.341,-0.54C0.342,-0.539 0.344,-0.537 0.346,-0.536C0.35,-0.532 0.352,-0.53 0.352,-0.528C0.352,-0.527 0.352,-0.526 0.351,-0.525C0.352,-0.522 0.353,-0.519 0.353,-0.516C0.353,-0.513 0.354,-0.51 0.354,-0.507L0.354,-0.492C0.353,-0.487 0.354,-0.479 0.355,-0.47C0.355,-0.461 0.356,-0.454 0.356,-0.448C0.356,-0.442 0.356,-0.437 0.355,-0.432C0.353,-0.425 0.351,-0.42 0.351,-0.417L0.351,-0.402C0.348,-0.395 0.346,-0.391 0.346,-0.39C0.345,-0.389 0.344,-0.388 0.343,-0.386C0.336,-0.384 0.332,-0.383 0.329,-0.382C0.327,-0.383 0.325,-0.384 0.322,-0.384C0.32,-0.384 0.317,-0.384 0.314,-0.386C0.305,-0.385 0.298,-0.386 0.294,-0.388C0.291,-0.39 0.287,-0.391 0.283,-0.392C0.281,-0.392 0.277,-0.392 0.273,-0.392C0.27,-0.392 0.266,-0.392 0.264,-0.392C0.261,-0.392 0.259,-0.391 0.258,-0.391C0.257,-0.391 0.254,-0.391 0.251,-0.391C0.244,-0.387 0.241,-0.386 0.24,-0.385C0.24,-0.385 0.239,-0.384 0.239,-0.384C0.24,-0.38 0.24,-0.377 0.24,-0.376C0.239,-0.375 0.239,-0.374 0.239,-0.373C0.239,-0.366 0.239,-0.362 0.238,-0.36L0.24,-0.336C0.24,-0.326 0.24,-0.318 0.24,-0.312C0.241,-0.305 0.242,-0.299 0.242,-0.294C0.242,-0.292 0.242,-0.29 0.243,-0.289C0.243,-0.288 0.243,-0.286 0.243,-0.283C0.244,-0.279 0.244,-0.273 0.244,-0.266C0.244,-0.259 0.244,-0.254 0.243,-0.25C0.244,-0.244 0.245,-0.24 0.245,-0.238C0.245,-0.236 0.245,-0.234 0.246,-0.232L0.246,-0.195C0.247,-0.188 0.247,-0.184 0.246,-0.184C0.245,-0.183 0.245,-0.182 0.245,-0.181L0.245,-0.17C0.244,-0.163 0.244,-0.16 0.245,-0.16C0.245,-0.159 0.245,-0.159 0.245,-0.157L0.243,-0.13C0.244,-0.125 0.245,-0.122 0.245,-0.121C0.244,-0.12 0.244,-0.12 0.244,-0.119C0.245,-0.115 0.245,-0.11 0.246,-0.106C0.247,-0.102 0.247,-0.098 0.248,-0.095C0.249,-0.088 0.25,-0.085 0.25,-0.085C0.249,-0.085 0.249,-0.085 0.249,-0.084C0.249,-0.077 0.249,-0.074 0.25,-0.073C0.25,-0.073 0.25,-0.072 0.251,-0.07C0.252,-0.062 0.252,-0.057 0.252,-0.056C0.251,-0.051 0.251,-0.048 0.252,-0.046C0.253,-0.044 0.253,-0.042 0.254,-0.04C0.254,-0.033 0.254,-0.029 0.254,-0.029C0.255,-0.028 0.255,-0.028 0.255,-0.026C0.254,-0.018 0.254,-0.013 0.254,-0.01C0.255,-0.008 0.255,-0.005 0.254,-0.002C0.251,0.001 0.248,0.002 0.247,0.001C0.245,0.001 0.244,0.002 0.244,0.003C0.239,0.003 0.233,0.003 0.228,0.004C0.222,0.005 0.216,0.005 0.21,0.006C0.209,0.006 0.207,0.006 0.206,0.005C0.204,0.005 0.201,0.005 0.198,0.006C0.19,0.006 0.183,0.006 0.179,0.005C0.175,0.005 0.169,0.006 0.162,0.007C0.154,0.008 0.149,0.009 0.147,0.01C0.145,0.01 0.143,0.011 0.142,0.011C0.138,0.011 0.135,0.011 0.131,0.011C0.128,0.01 0.124,0.01 0.121,0.011C0.116,0.012 0.112,0.013 0.11,0.013C0.108,0.013 0.105,0.012 0.104,0.012C0.098,0.011 0.094,0.009 0.09,0.006C0.084,0.001 0.081,-0.001 0.082,-0.002C0.082,-0.003 0.081,-0.003 0.08,-0.002C0.081,-0.005 0.08,-0.008 0.079,-0.01C0.077,-0.013 0.076,-0.015 0.076,-0.019C0.076,-0.021 0.076,-0.024 0.076,-0.026C0.077,-0.029 0.077,-0.032 0.077,-0.035C0.077,-0.043 0.077,-0.048 0.078,-0.049C0.079,-0.05 0.078,-0.051 0.077,-0.053C0.078,-0.054 0.079,-0.056 0.079,-0.058C0.079,-0.06 0.079,-0.063 0.08,-0.065L0.08,-0.078C0.081,-0.084 0.081,-0.087 0.082,-0.088C0.082,-0.089 0.082,-0.09 0.083,-0.092C0.084,-0.098 0.084,-0.102 0.084,-0.104C0.083,-0.106 0.083,-0.108 0.084,-0.11C0.085,-0.112 0.086,-0.114 0.086,-0.116C0.085,-0.123 0.085,-0.126 0.085,-0.127L0.086,-0.141C0.085,-0.146 0.085,-0.15 0.086,-0.15C0.087,-0.15 0.087,-0.151 0.087,-0.152C0.087,-0.157 0.087,-0.16 0.087,-0.161C0.088,-0.162 0.088,-0.164 0.088,-0.165C0.088,-0.167 0.088,-0.169 0.087,-0.17C0.086,-0.172 0.086,-0.174 0.086,-0.176C0.087,-0.187 0.087,-0.194 0.086,-0.198C0.086,-0.201 0.086,-0.206 0.086,-0.211C0.086,-0.218 0.085,-0.224 0.084,-0.228C0.085,-0.233 0.085,-0.236 0.084,-0.236C0.084,-0.237 0.084,-0.238 0.084,-0.238C0.085,-0.241 0.085,-0.243 0.085,-0.246L0.085,-0.251L0.086,-0.273C0.085,-0.282 0.085,-0.287 0.084,-0.289C0.084,-0.29 0.084,-0.292 0.084,-0.293C0.086,-0.301 0.087,-0.306 0.086,-0.307C0.085,-0.309 0.085,-0.31 0.085,-0.312C0.084,-0.319 0.084,-0.322 0.085,-0.322C0.086,-0.321 0.087,-0.322 0.087,-0.322C0.088,-0.326 0.089,-0.33 0.088,-0.334C0.087,-0.338 0.087,-0.341 0.087,-0.343C0.088,-0.346 0.088,-0.348 0.088,-0.351C0.089,-0.357 0.089,-0.361 0.088,-0.362C0.087,-0.363 0.087,-0.364 0.088,-0.365C0.089,-0.368 0.089,-0.371 0.088,-0.375C0.088,-0.38 0.088,-0.384 0.087,-0.388C0.084,-0.389 0.082,-0.39 0.079,-0.39L0.069,-0.39C0.062,-0.391 0.059,-0.391 0.059,-0.391C0.059,-0.391 0.058,-0.391 0.058,-0.391C0.05,-0.392 0.045,-0.393 0.042,-0.394C0.035,-0.397 0.032,-0.398 0.031,-0.398C0.031,-0.398 0.03,-0.398 0.03,-0.398C0.026,-0.402 0.024,-0.405 0.023,-0.407C0.02,-0.414 0.019,-0.419 0.021,-0.422C0.023,-0.424 0.023,-0.427 0.021,-0.431C0.02,-0.439 0.02,-0.445 0.021,-0.448C0.021,-0.453 0.021,-0.456 0.021,-0.457C0.02,-0.458 0.02,-0.458 0.02,-0.459L0.02,-0.475C0.02,-0.48 0.019,-0.486 0.018,-0.491L0.018,-0.497C0.018,-0.5 0.017,-0.502 0.017,-0.503C0.015,-0.511 0.015,-0.517 0.017,-0.52C0.017,-0.529 0.018,-0.535 0.019,-0.538C0.019,-0.54 0.02,-0.542 0.021,-0.545C0.028,-0.548 0.032,-0.549 0.034,-0.549C0.041,-0.55 0.047,-0.55 0.051,-0.549C0.055,-0.549 0.06,-0.549 0.064,-0.55C0.069,-0.55 0.073,-0.55 0.076,-0.549C0.076,-0.549 0.076,-0.552 0.077,-0.556C0.077,-0.56 0.076,-0.562 0.072,-0.562C0.075,-0.571 0.076,-0.577 0.076,-0.58C0.075,-0.583 0.076,-0.587 0.076,-0.591C0.077,-0.597 0.077,-0.601 0.077,-0.601C0.076,-0.601 0.076,-0.601 0.076,-0.602C0.077,-0.609 0.077,-0.613 0.078,-0.613C0.078,-0.614 0.078,-0.615 0.078,-0.616C0.081,-0.623 0.082,-0.626 0.082,-0.627C0.082,-0.628 0.082,-0.628 0.083,-0.629C0.087,-0.636 0.089,-0.642 0.09,-0.647C0.092,-0.654 0.094,-0.658 0.095,-0.661C0.095,-0.663 0.096,-0.665 0.097,-0.667L0.109,-0.682C0.113,-0.686 0.114,-0.689 0.114,-0.691C0.116,-0.695 0.118,-0.699 0.121,-0.703C0.126,-0.709 0.13,-0.712 0.131,-0.713C0.132,-0.714 0.134,-0.715 0.138,-0.715C0.147,-0.719 0.154,-0.723 0.158,-0.727C0.163,-0.729 0.167,-0.73 0.169,-0.731C0.172,-0.732 0.174,-0.733 0.176,-0.734C0.18,-0.734 0.185,-0.736 0.191,-0.738C0.199,-0.738 0.203,-0.739 0.204,-0.739C0.205,-0.74 0.207,-0.741 0.209,-0.742C0.211,-0.743 0.213,-0.743 0.215,-0.744C0.217,-0.745 0.222,-0.745 0.229,-0.745C0.23,-0.746 0.233,-0.746 0.235,-0.745C0.237,-0.744 0.24,-0.744 0.242,-0.744L0.257,-0.745C0.263,-0.744 0.268,-0.743 0.271,-0.744C0.275,-0.745 0.278,-0.744 0.28,-0.743C0.285,-0.744 0.29,-0.744 0.293,-0.745C0.297,-0.746 0.3,-0.746 0.304,-0.745C0.309,-0.744 0.312,-0.743 0.313,-0.744C0.313,-0.744 0.314,-0.744 0.315,-0.744C0.317,-0.744 0.318,-0.744 0.32,-0.744C0.322,-0.743 0.324,-0.744 0.326,-0.745C0.329,-0.744 0.332,-0.743 0.336,-0.743C0.34,-0.743 0.344,-0.744 0.348,-0.745C0.352,-0.742 0.357,-0.741 0.363,-0.741C0.368,-0.742 0.373,-0.742 0.377,-0.741L0.379,-0.735Z" style="fill:rgb(82,166,231);fill-rule:nonzero;"/>
            </g>
            <g transform="matrix(240.232,-95.3987,63.8188,359.107,4064.66,558.798)">
                <path d="M0.247,-0.553C0.251,-0.552 0.255,-0.552 0.258,-0.552C0.262,-0.552 0.265,-0.552 0.269,-0.554C0.276,-0.552 0.28,-0.551 0.281,-0.551C0.282,-0.552 0.283,-0.552 0.284,-0.552C0.29,-0.552 0.294,-0.552 0.295,-0.553C0.296,-0.553 0.298,-0.554 0.299,-0.554C0.306,-0.551 0.311,-0.55 0.315,-0.55C0.319,-0.551 0.322,-0.55 0.324,-0.549C0.329,-0.542 0.331,-0.539 0.332,-0.538C0.333,-0.537 0.333,-0.535 0.333,-0.534C0.331,-0.526 0.33,-0.521 0.33,-0.52C0.33,-0.518 0.331,-0.516 0.332,-0.515C0.331,-0.51 0.33,-0.506 0.331,-0.501C0.332,-0.496 0.332,-0.492 0.332,-0.486L0.331,-0.473L0.331,-0.456C0.332,-0.453 0.332,-0.448 0.332,-0.44C0.331,-0.43 0.331,-0.423 0.332,-0.418C0.332,-0.414 0.331,-0.41 0.329,-0.407C0.325,-0.401 0.321,-0.398 0.318,-0.397C0.316,-0.397 0.313,-0.396 0.31,-0.395C0.299,-0.396 0.291,-0.397 0.284,-0.397C0.278,-0.397 0.271,-0.396 0.266,-0.396C0.258,-0.396 0.253,-0.396 0.251,-0.396C0.25,-0.395 0.248,-0.395 0.247,-0.396C0.246,-0.392 0.245,-0.387 0.245,-0.383C0.244,-0.378 0.244,-0.374 0.243,-0.369C0.243,-0.364 0.243,-0.359 0.243,-0.354C0.242,-0.349 0.243,-0.344 0.244,-0.34L0.243,-0.317C0.244,-0.31 0.244,-0.306 0.244,-0.306C0.243,-0.305 0.243,-0.304 0.243,-0.303C0.243,-0.295 0.243,-0.291 0.244,-0.291C0.245,-0.29 0.245,-0.289 0.245,-0.288L0.245,-0.276C0.245,-0.274 0.245,-0.271 0.246,-0.268C0.246,-0.258 0.247,-0.25 0.248,-0.245C0.248,-0.241 0.248,-0.237 0.248,-0.235C0.247,-0.233 0.248,-0.232 0.249,-0.23L0.248,-0.211L0.25,-0.198C0.25,-0.196 0.25,-0.194 0.25,-0.192C0.251,-0.19 0.251,-0.188 0.252,-0.186L0.256,-0.172C0.257,-0.166 0.259,-0.162 0.26,-0.159C0.262,-0.156 0.264,-0.154 0.267,-0.152C0.268,-0.148 0.27,-0.144 0.272,-0.142C0.279,-0.14 0.282,-0.139 0.283,-0.138C0.283,-0.136 0.284,-0.136 0.285,-0.136C0.288,-0.134 0.291,-0.134 0.292,-0.133C0.293,-0.133 0.295,-0.132 0.296,-0.131C0.298,-0.132 0.3,-0.131 0.302,-0.13C0.304,-0.129 0.306,-0.129 0.309,-0.128L0.32,-0.129C0.327,-0.127 0.333,-0.126 0.337,-0.126C0.341,-0.127 0.344,-0.127 0.348,-0.127L0.358,-0.127C0.36,-0.117 0.361,-0.11 0.359,-0.106C0.357,-0.103 0.355,-0.101 0.355,-0.1C0.355,-0.098 0.354,-0.097 0.353,-0.097C0.351,-0.09 0.35,-0.086 0.35,-0.084C0.35,-0.082 0.349,-0.08 0.348,-0.077C0.346,-0.071 0.345,-0.068 0.345,-0.068C0.344,-0.068 0.344,-0.067 0.344,-0.066C0.343,-0.06 0.342,-0.056 0.342,-0.055C0.339,-0.05 0.338,-0.048 0.337,-0.048C0.336,-0.048 0.336,-0.047 0.335,-0.046C0.334,-0.042 0.334,-0.04 0.333,-0.039C0.332,-0.038 0.332,-0.036 0.331,-0.035C0.329,-0.029 0.328,-0.026 0.328,-0.026C0.328,-0.026 0.328,-0.025 0.327,-0.024C0.326,-0.022 0.325,-0.019 0.325,-0.017C0.324,-0.014 0.324,-0.011 0.322,-0.009C0.321,-0.006 0.32,-0.004 0.318,-0.002C0.317,-0.001 0.316,0.001 0.314,0.004C0.311,0.005 0.309,0.007 0.307,0.008C0.306,0.01 0.304,0.011 0.302,0.013C0.297,0.013 0.294,0.013 0.293,0.014C0.293,0.014 0.292,0.015 0.291,0.015C0.288,0.014 0.286,0.014 0.285,0.015C0.283,0.015 0.281,0.016 0.279,0.016C0.272,0.017 0.267,0.017 0.265,0.016C0.255,0.014 0.248,0.013 0.243,0.011C0.239,0.011 0.236,0.011 0.235,0.01C0.233,0.01 0.232,0.01 0.23,0.01C0.227,0.009 0.223,0.008 0.22,0.007C0.216,0.006 0.213,0.006 0.21,0.006C0.209,0.003 0.206,0.002 0.203,0.001C0.2,0 0.197,-0.001 0.193,-0.002C0.186,-0.005 0.182,-0.006 0.182,-0.005C0.181,-0.005 0.18,-0.005 0.179,-0.006C0.177,-0.006 0.175,-0.007 0.172,-0.008C0.17,-0.009 0.168,-0.01 0.166,-0.012C0.163,-0.013 0.161,-0.014 0.16,-0.016C0.158,-0.017 0.156,-0.018 0.153,-0.02C0.152,-0.021 0.151,-0.023 0.15,-0.024C0.149,-0.026 0.147,-0.026 0.144,-0.026C0.141,-0.03 0.139,-0.033 0.138,-0.033C0.136,-0.034 0.135,-0.035 0.134,-0.036C0.13,-0.043 0.128,-0.047 0.127,-0.05C0.126,-0.052 0.125,-0.054 0.123,-0.056C0.122,-0.06 0.121,-0.064 0.12,-0.066C0.119,-0.068 0.117,-0.07 0.115,-0.071C0.115,-0.075 0.114,-0.079 0.112,-0.083C0.11,-0.086 0.11,-0.09 0.111,-0.093C0.111,-0.104 0.108,-0.112 0.103,-0.117C0.103,-0.122 0.102,-0.125 0.102,-0.126C0.101,-0.127 0.101,-0.128 0.101,-0.129L0.102,-0.141C0.102,-0.142 0.102,-0.144 0.102,-0.146C0.101,-0.148 0.101,-0.15 0.101,-0.151C0.101,-0.162 0.1,-0.168 0.1,-0.169C0.1,-0.175 0.1,-0.179 0.1,-0.181C0.1,-0.183 0.101,-0.185 0.101,-0.187L0.101,-0.198C0.1,-0.204 0.099,-0.209 0.099,-0.212C0.099,-0.215 0.098,-0.218 0.098,-0.222L0.098,-0.232C0.098,-0.234 0.097,-0.236 0.097,-0.238C0.096,-0.239 0.096,-0.241 0.096,-0.243C0.098,-0.25 0.098,-0.254 0.098,-0.256C0.097,-0.259 0.096,-0.261 0.096,-0.265C0.096,-0.271 0.096,-0.276 0.096,-0.279C0.097,-0.282 0.096,-0.284 0.096,-0.286C0.096,-0.295 0.096,-0.304 0.095,-0.312C0.095,-0.319 0.095,-0.327 0.096,-0.336C0.096,-0.342 0.097,-0.346 0.096,-0.347C0.096,-0.348 0.096,-0.349 0.096,-0.351C0.096,-0.356 0.096,-0.361 0.096,-0.366C0.097,-0.371 0.096,-0.377 0.095,-0.382C0.096,-0.384 0.096,-0.386 0.096,-0.389C0.095,-0.392 0.095,-0.395 0.097,-0.398C0.095,-0.399 0.093,-0.4 0.091,-0.4C0.088,-0.4 0.086,-0.4 0.085,-0.398C0.081,-0.4 0.078,-0.4 0.075,-0.399C0.073,-0.399 0.071,-0.398 0.069,-0.398C0.062,-0.398 0.058,-0.397 0.056,-0.397C0.055,-0.397 0.053,-0.396 0.052,-0.395C0.05,-0.396 0.049,-0.396 0.046,-0.396C0.044,-0.396 0.042,-0.396 0.041,-0.397C0.035,-0.401 0.032,-0.402 0.03,-0.402C0.029,-0.402 0.028,-0.403 0.026,-0.403C0.025,-0.41 0.024,-0.414 0.022,-0.417C0.02,-0.419 0.019,-0.422 0.019,-0.425C0.019,-0.426 0.018,-0.428 0.018,-0.43C0.018,-0.432 0.018,-0.434 0.019,-0.436C0.019,-0.439 0.019,-0.442 0.019,-0.443C0.018,-0.445 0.017,-0.446 0.017,-0.447C0.016,-0.454 0.016,-0.459 0.016,-0.461C0.016,-0.463 0.017,-0.465 0.017,-0.468C0.016,-0.471 0.016,-0.473 0.016,-0.474C0.016,-0.475 0.017,-0.477 0.017,-0.479C0.017,-0.484 0.016,-0.487 0.016,-0.488C0.015,-0.489 0.015,-0.49 0.016,-0.491C0.015,-0.498 0.015,-0.502 0.016,-0.503C0.016,-0.506 0.016,-0.509 0.016,-0.514C0.016,-0.519 0.016,-0.523 0.016,-0.526C0.016,-0.533 0.016,-0.538 0.016,-0.541C0.015,-0.544 0.015,-0.547 0.017,-0.55C0.023,-0.557 0.026,-0.561 0.026,-0.562C0.034,-0.56 0.039,-0.56 0.041,-0.56C0.042,-0.56 0.044,-0.559 0.046,-0.558C0.05,-0.556 0.053,-0.555 0.055,-0.555C0.057,-0.556 0.06,-0.555 0.062,-0.553C0.067,-0.554 0.073,-0.554 0.079,-0.553C0.084,-0.551 0.09,-0.551 0.096,-0.553C0.096,-0.556 0.096,-0.559 0.096,-0.563C0.095,-0.566 0.095,-0.568 0.096,-0.57C0.095,-0.575 0.095,-0.58 0.095,-0.587C0.096,-0.593 0.096,-0.599 0.096,-0.604C0.094,-0.611 0.094,-0.614 0.094,-0.615C0.095,-0.615 0.095,-0.616 0.095,-0.616C0.094,-0.624 0.093,-0.628 0.093,-0.629C0.093,-0.633 0.092,-0.638 0.09,-0.642C0.089,-0.643 0.089,-0.645 0.089,-0.647L0.089,-0.652C0.087,-0.656 0.086,-0.658 0.086,-0.66C0.087,-0.661 0.086,-0.663 0.085,-0.665C0.086,-0.668 0.086,-0.67 0.085,-0.672C0.084,-0.675 0.084,-0.677 0.084,-0.679C0.084,-0.685 0.084,-0.689 0.083,-0.69C0.083,-0.692 0.083,-0.693 0.083,-0.694C0.083,-0.698 0.083,-0.701 0.084,-0.703C0.085,-0.706 0.086,-0.709 0.087,-0.712C0.084,-0.718 0.083,-0.721 0.084,-0.723C0.085,-0.724 0.085,-0.726 0.084,-0.728C0.087,-0.73 0.089,-0.732 0.092,-0.734C0.095,-0.736 0.098,-0.738 0.101,-0.74C0.103,-0.74 0.106,-0.74 0.108,-0.74C0.111,-0.741 0.114,-0.741 0.116,-0.741C0.124,-0.741 0.128,-0.741 0.129,-0.742C0.13,-0.742 0.132,-0.742 0.133,-0.742L0.153,-0.741C0.155,-0.74 0.157,-0.741 0.158,-0.741C0.166,-0.743 0.171,-0.743 0.172,-0.743C0.174,-0.742 0.175,-0.743 0.177,-0.743L0.192,-0.743L0.219,-0.741C0.221,-0.741 0.224,-0.741 0.226,-0.74C0.228,-0.74 0.231,-0.74 0.234,-0.74C0.241,-0.737 0.245,-0.735 0.246,-0.734C0.247,-0.734 0.247,-0.732 0.247,-0.73C0.253,-0.727 0.256,-0.724 0.255,-0.724C0.255,-0.723 0.255,-0.722 0.256,-0.722C0.258,-0.72 0.259,-0.718 0.259,-0.716C0.26,-0.713 0.259,-0.711 0.259,-0.71C0.257,-0.702 0.257,-0.698 0.258,-0.696C0.258,-0.695 0.259,-0.694 0.259,-0.692C0.258,-0.685 0.258,-0.681 0.258,-0.68C0.259,-0.678 0.259,-0.677 0.259,-0.676L0.255,-0.66C0.256,-0.654 0.256,-0.649 0.255,-0.647C0.254,-0.645 0.254,-0.643 0.254,-0.642C0.254,-0.636 0.254,-0.632 0.253,-0.632C0.252,-0.631 0.252,-0.63 0.252,-0.629C0.251,-0.624 0.251,-0.618 0.251,-0.613L0.251,-0.595C0.25,-0.591 0.25,-0.588 0.249,-0.585C0.248,-0.582 0.248,-0.579 0.248,-0.577C0.247,-0.569 0.247,-0.564 0.248,-0.562C0.248,-0.559 0.248,-0.556 0.247,-0.553Z" style="fill:rgb(82,166,231);fill-rule:nonzero;"/>
            </g>
            <g transform="matrix(214.284,-188.293,125.962,320.32,4314.19,440.37)">
                <path d="M0.195,-0.446C0.201,-0.451 0.204,-0.453 0.205,-0.454C0.21,-0.459 0.212,-0.461 0.212,-0.462C0.212,-0.463 0.212,-0.463 0.213,-0.464C0.219,-0.47 0.222,-0.473 0.223,-0.474C0.223,-0.474 0.223,-0.475 0.223,-0.477C0.225,-0.477 0.227,-0.479 0.228,-0.48C0.229,-0.482 0.23,-0.484 0.231,-0.486C0.237,-0.492 0.24,-0.495 0.24,-0.495C0.241,-0.495 0.242,-0.496 0.242,-0.497C0.248,-0.504 0.253,-0.509 0.258,-0.513C0.264,-0.518 0.269,-0.523 0.272,-0.527C0.276,-0.529 0.279,-0.53 0.281,-0.532C0.284,-0.534 0.287,-0.536 0.29,-0.537C0.297,-0.54 0.3,-0.541 0.3,-0.541C0.299,-0.541 0.299,-0.541 0.301,-0.541C0.303,-0.542 0.306,-0.543 0.307,-0.543C0.309,-0.543 0.31,-0.543 0.312,-0.544C0.319,-0.545 0.324,-0.546 0.325,-0.547C0.326,-0.548 0.327,-0.548 0.328,-0.549C0.335,-0.549 0.338,-0.55 0.339,-0.55C0.34,-0.551 0.341,-0.551 0.343,-0.551C0.345,-0.551 0.347,-0.552 0.349,-0.552C0.351,-0.552 0.352,-0.552 0.354,-0.554L0.364,-0.554C0.369,-0.553 0.373,-0.553 0.376,-0.553C0.382,-0.553 0.386,-0.554 0.387,-0.554C0.388,-0.555 0.389,-0.554 0.391,-0.554C0.396,-0.547 0.4,-0.542 0.401,-0.54C0.403,-0.538 0.404,-0.536 0.405,-0.534C0.407,-0.527 0.407,-0.523 0.408,-0.521C0.408,-0.519 0.408,-0.518 0.408,-0.517C0.409,-0.509 0.41,-0.504 0.411,-0.5C0.412,-0.495 0.413,-0.491 0.414,-0.489C0.414,-0.488 0.414,-0.486 0.414,-0.485C0.413,-0.483 0.413,-0.481 0.414,-0.479C0.415,-0.471 0.416,-0.466 0.416,-0.465C0.415,-0.464 0.415,-0.463 0.415,-0.462C0.415,-0.459 0.415,-0.455 0.416,-0.452C0.417,-0.448 0.418,-0.445 0.42,-0.443L0.42,-0.425C0.42,-0.418 0.419,-0.412 0.418,-0.406C0.412,-0.404 0.408,-0.403 0.407,-0.403C0.405,-0.403 0.404,-0.404 0.402,-0.405C0.398,-0.406 0.395,-0.406 0.394,-0.406C0.392,-0.406 0.391,-0.407 0.391,-0.407C0.387,-0.406 0.384,-0.405 0.383,-0.406C0.382,-0.406 0.381,-0.406 0.38,-0.406L0.369,-0.403C0.361,-0.401 0.355,-0.399 0.352,-0.398C0.349,-0.398 0.346,-0.397 0.343,-0.396L0.325,-0.39C0.322,-0.388 0.319,-0.387 0.316,-0.386C0.314,-0.384 0.311,-0.383 0.308,-0.383C0.3,-0.38 0.296,-0.378 0.295,-0.378C0.294,-0.378 0.293,-0.377 0.292,-0.376C0.287,-0.373 0.284,-0.372 0.283,-0.372C0.283,-0.372 0.282,-0.372 0.28,-0.371C0.278,-0.37 0.277,-0.368 0.275,-0.367C0.273,-0.366 0.271,-0.365 0.268,-0.364C0.263,-0.359 0.26,-0.356 0.26,-0.356C0.255,-0.353 0.252,-0.351 0.251,-0.35C0.25,-0.348 0.248,-0.347 0.247,-0.346C0.246,-0.345 0.244,-0.344 0.242,-0.343C0.236,-0.337 0.231,-0.333 0.229,-0.331C0.227,-0.328 0.224,-0.326 0.222,-0.323C0.216,-0.319 0.212,-0.316 0.211,-0.313C0.208,-0.309 0.207,-0.306 0.207,-0.305C0.206,-0.303 0.206,-0.302 0.205,-0.301C0.204,-0.299 0.203,-0.298 0.202,-0.295C0.201,-0.293 0.199,-0.291 0.197,-0.29C0.196,-0.285 0.195,-0.282 0.194,-0.281C0.194,-0.28 0.193,-0.279 0.191,-0.277C0.193,-0.275 0.193,-0.272 0.192,-0.27C0.192,-0.268 0.191,-0.265 0.191,-0.263C0.191,-0.258 0.191,-0.255 0.19,-0.254C0.19,-0.253 0.189,-0.251 0.189,-0.25C0.191,-0.243 0.191,-0.24 0.191,-0.24C0.191,-0.24 0.19,-0.24 0.189,-0.238C0.19,-0.235 0.19,-0.231 0.188,-0.228C0.188,-0.222 0.189,-0.218 0.189,-0.218C0.189,-0.217 0.189,-0.216 0.189,-0.216C0.19,-0.209 0.19,-0.203 0.19,-0.2C0.19,-0.198 0.19,-0.195 0.19,-0.193C0.19,-0.191 0.19,-0.19 0.19,-0.188C0.192,-0.182 0.192,-0.178 0.192,-0.178C0.192,-0.177 0.191,-0.176 0.191,-0.175L0.192,-0.158C0.192,-0.15 0.192,-0.145 0.192,-0.141C0.192,-0.138 0.192,-0.133 0.192,-0.129L0.192,-0.115C0.192,-0.111 0.193,-0.107 0.193,-0.103C0.193,-0.099 0.193,-0.096 0.193,-0.095C0.193,-0.093 0.193,-0.092 0.193,-0.091C0.194,-0.083 0.194,-0.078 0.194,-0.076C0.194,-0.074 0.195,-0.073 0.195,-0.071C0.195,-0.067 0.196,-0.063 0.196,-0.061C0.198,-0.056 0.198,-0.053 0.198,-0.053C0.197,-0.052 0.197,-0.051 0.197,-0.05L0.201,-0.039C0.202,-0.035 0.202,-0.03 0.201,-0.026C0.201,-0.022 0.2,-0.019 0.198,-0.015C0.196,-0.007 0.194,-0.003 0.192,-0.002C0.188,0.001 0.185,0.002 0.183,0.003C0.181,0.004 0.18,0.004 0.179,0.005C0.175,0.007 0.172,0.008 0.17,0.009C0.169,0.01 0.167,0.011 0.164,0.012C0.163,0.012 0.161,0.011 0.158,0.01C0.156,0.009 0.153,0.009 0.15,0.009C0.147,0.009 0.144,0.009 0.141,0.01C0.138,0.01 0.135,0.01 0.132,0.01C0.125,0.008 0.121,0.008 0.12,0.008C0.118,0.009 0.117,0.009 0.115,0.009L0.102,0.009L0.091,0.01C0.084,0.011 0.08,0.012 0.08,0.012C0.08,0.013 0.08,0.013 0.079,0.013C0.07,0.011 0.064,0.01 0.061,0.009C0.057,0.007 0.054,0.006 0.051,0.005C0.049,-0.002 0.048,-0.006 0.047,-0.006C0.046,-0.007 0.046,-0.007 0.045,-0.008C0.042,-0.017 0.041,-0.022 0.042,-0.023C0.043,-0.025 0.042,-0.026 0.041,-0.027C0.042,-0.031 0.043,-0.034 0.042,-0.037C0.042,-0.04 0.042,-0.043 0.042,-0.046C0.043,-0.051 0.044,-0.055 0.044,-0.058C0.045,-0.063 0.045,-0.069 0.045,-0.075L0.045,-0.091L0.046,-0.108C0.047,-0.11 0.047,-0.112 0.046,-0.114C0.046,-0.116 0.046,-0.118 0.046,-0.121C0.047,-0.126 0.048,-0.13 0.048,-0.133C0.049,-0.136 0.049,-0.14 0.048,-0.145C0.048,-0.149 0.048,-0.153 0.048,-0.156C0.049,-0.163 0.05,-0.169 0.049,-0.172C0.049,-0.175 0.049,-0.178 0.049,-0.182L0.05,-0.194C0.049,-0.203 0.049,-0.209 0.049,-0.21C0.05,-0.212 0.05,-0.214 0.05,-0.217L0.05,-0.254L0.049,-0.271L0.049,-0.288C0.049,-0.293 0.049,-0.295 0.049,-0.296C0.05,-0.297 0.05,-0.299 0.05,-0.3C0.049,-0.302 0.049,-0.305 0.048,-0.306C0.048,-0.308 0.048,-0.31 0.049,-0.313C0.05,-0.317 0.051,-0.322 0.051,-0.327C0.05,-0.331 0.05,-0.334 0.05,-0.337C0.051,-0.34 0.05,-0.341 0.049,-0.343C0.049,-0.35 0.05,-0.354 0.05,-0.355C0.051,-0.356 0.051,-0.357 0.051,-0.358C0.05,-0.366 0.05,-0.371 0.051,-0.374C0.051,-0.377 0.051,-0.381 0.051,-0.384C0.048,-0.392 0.048,-0.398 0.049,-0.4L0.047,-0.413L0.05,-0.424C0.05,-0.428 0.05,-0.431 0.049,-0.433C0.049,-0.435 0.049,-0.438 0.05,-0.441C0.049,-0.452 0.049,-0.458 0.049,-0.459C0.048,-0.465 0.048,-0.47 0.047,-0.471C0.046,-0.473 0.046,-0.474 0.046,-0.476C0.046,-0.483 0.046,-0.488 0.045,-0.49C0.044,-0.491 0.044,-0.493 0.044,-0.494C0.045,-0.497 0.045,-0.499 0.044,-0.502C0.044,-0.505 0.043,-0.507 0.042,-0.509C0.041,-0.513 0.04,-0.516 0.04,-0.518C0.04,-0.52 0.04,-0.521 0.041,-0.522C0.042,-0.526 0.043,-0.529 0.044,-0.531C0.045,-0.534 0.045,-0.537 0.044,-0.54C0.051,-0.548 0.056,-0.552 0.058,-0.553C0.06,-0.554 0.062,-0.555 0.064,-0.555C0.066,-0.556 0.068,-0.556 0.069,-0.558C0.073,-0.556 0.076,-0.556 0.078,-0.556C0.081,-0.556 0.084,-0.557 0.087,-0.557L0.106,-0.556C0.11,-0.556 0.112,-0.557 0.115,-0.558C0.117,-0.558 0.119,-0.559 0.122,-0.559C0.129,-0.56 0.136,-0.56 0.143,-0.559C0.145,-0.559 0.147,-0.559 0.149,-0.559C0.151,-0.559 0.154,-0.559 0.156,-0.559C0.163,-0.558 0.167,-0.558 0.168,-0.558C0.17,-0.557 0.173,-0.557 0.178,-0.559C0.183,-0.56 0.187,-0.56 0.189,-0.558C0.195,-0.554 0.198,-0.551 0.198,-0.549C0.199,-0.548 0.201,-0.547 0.203,-0.547C0.203,-0.544 0.204,-0.541 0.205,-0.538C0.206,-0.535 0.207,-0.533 0.207,-0.53C0.204,-0.521 0.203,-0.514 0.204,-0.511C0.201,-0.508 0.2,-0.505 0.2,-0.501C0.2,-0.497 0.199,-0.494 0.197,-0.491C0.197,-0.487 0.197,-0.484 0.196,-0.482C0.196,-0.48 0.195,-0.478 0.195,-0.476C0.196,-0.469 0.196,-0.463 0.195,-0.458C0.194,-0.454 0.194,-0.45 0.195,-0.446Z" style="fill:rgb(82,166,231);fill-rule:nonzero;"/>
            </g>
            <g transform="matrix(272.121,-127.284,85.1491,406.776,4349.82,296.343)">
                <path d="M0.212,-0.578C0.215,-0.57 0.217,-0.565 0.217,-0.565C0.221,-0.559 0.223,-0.555 0.224,-0.555C0.224,-0.554 0.225,-0.554 0.227,-0.554C0.227,-0.55 0.229,-0.548 0.231,-0.547C0.233,-0.546 0.235,-0.544 0.235,-0.541C0.239,-0.535 0.242,-0.529 0.245,-0.526C0.247,-0.522 0.249,-0.519 0.252,-0.516C0.253,-0.513 0.254,-0.511 0.255,-0.509C0.256,-0.508 0.257,-0.506 0.259,-0.504C0.26,-0.503 0.261,-0.501 0.262,-0.499C0.262,-0.496 0.264,-0.494 0.266,-0.493C0.269,-0.487 0.272,-0.483 0.274,-0.479C0.276,-0.476 0.277,-0.472 0.276,-0.468C0.271,-0.462 0.267,-0.459 0.266,-0.459C0.264,-0.459 0.264,-0.458 0.264,-0.457C0.257,-0.454 0.252,-0.453 0.251,-0.452C0.25,-0.451 0.248,-0.45 0.247,-0.448C0.241,-0.444 0.237,-0.442 0.236,-0.442C0.236,-0.442 0.235,-0.441 0.234,-0.441C0.233,-0.44 0.231,-0.439 0.229,-0.438C0.227,-0.436 0.225,-0.435 0.224,-0.433C0.222,-0.433 0.22,-0.432 0.218,-0.432C0.217,-0.431 0.215,-0.43 0.213,-0.429C0.209,-0.425 0.207,-0.423 0.206,-0.422C0.205,-0.421 0.204,-0.42 0.203,-0.419C0.2,-0.415 0.198,-0.412 0.197,-0.41C0.196,-0.408 0.194,-0.407 0.192,-0.405C0.19,-0.401 0.189,-0.398 0.189,-0.397C0.189,-0.397 0.189,-0.396 0.188,-0.395C0.187,-0.387 0.185,-0.382 0.184,-0.38C0.183,-0.379 0.183,-0.377 0.185,-0.374C0.187,-0.369 0.188,-0.367 0.189,-0.367C0.19,-0.366 0.19,-0.366 0.19,-0.364C0.192,-0.359 0.192,-0.355 0.192,-0.353C0.197,-0.347 0.2,-0.344 0.203,-0.342C0.205,-0.341 0.207,-0.339 0.208,-0.337C0.211,-0.334 0.213,-0.332 0.214,-0.332C0.215,-0.331 0.215,-0.33 0.216,-0.329C0.219,-0.325 0.221,-0.322 0.222,-0.321C0.222,-0.319 0.223,-0.318 0.225,-0.316C0.227,-0.31 0.228,-0.306 0.23,-0.306C0.232,-0.305 0.233,-0.304 0.233,-0.302C0.237,-0.297 0.239,-0.293 0.24,-0.291C0.242,-0.289 0.243,-0.288 0.246,-0.287C0.247,-0.284 0.248,-0.281 0.25,-0.279C0.253,-0.277 0.255,-0.275 0.257,-0.272C0.258,-0.27 0.259,-0.268 0.261,-0.266C0.262,-0.264 0.264,-0.262 0.267,-0.261C0.271,-0.254 0.274,-0.249 0.274,-0.246C0.275,-0.243 0.277,-0.242 0.279,-0.24C0.282,-0.234 0.284,-0.229 0.286,-0.226C0.287,-0.222 0.289,-0.219 0.291,-0.216C0.292,-0.211 0.293,-0.208 0.294,-0.208C0.295,-0.207 0.296,-0.205 0.296,-0.204L0.298,-0.19C0.299,-0.183 0.3,-0.178 0.301,-0.176C0.301,-0.174 0.301,-0.172 0.302,-0.169C0.302,-0.167 0.303,-0.165 0.303,-0.163L0.304,-0.152C0.304,-0.148 0.304,-0.144 0.303,-0.141C0.303,-0.138 0.303,-0.135 0.305,-0.132C0.303,-0.13 0.302,-0.128 0.302,-0.125C0.301,-0.122 0.3,-0.12 0.298,-0.119C0.298,-0.116 0.297,-0.113 0.296,-0.111C0.295,-0.109 0.294,-0.107 0.293,-0.105C0.29,-0.1 0.288,-0.096 0.287,-0.096C0.286,-0.095 0.286,-0.094 0.287,-0.093C0.283,-0.09 0.281,-0.088 0.281,-0.087C0.281,-0.086 0.281,-0.085 0.279,-0.084C0.275,-0.08 0.273,-0.078 0.272,-0.077C0.272,-0.076 0.271,-0.076 0.271,-0.074C0.266,-0.07 0.263,-0.068 0.263,-0.066C0.261,-0.063 0.259,-0.061 0.259,-0.06C0.258,-0.059 0.257,-0.058 0.256,-0.057C0.253,-0.053 0.251,-0.05 0.25,-0.049C0.25,-0.048 0.249,-0.047 0.248,-0.045C0.245,-0.045 0.243,-0.044 0.242,-0.042C0.241,-0.04 0.24,-0.038 0.238,-0.037C0.234,-0.034 0.232,-0.032 0.232,-0.031C0.232,-0.03 0.232,-0.029 0.23,-0.029C0.227,-0.024 0.224,-0.021 0.223,-0.019C0.215,-0.013 0.21,-0.009 0.207,-0.005C0.2,0.001 0.194,0.006 0.19,0.01C0.183,0.015 0.179,0.018 0.178,0.019C0.176,0.019 0.175,0.02 0.174,0.021C0.171,0.023 0.169,0.025 0.168,0.026C0.167,0.027 0.166,0.028 0.165,0.029C0.162,0.031 0.16,0.031 0.157,0.032C0.154,0.032 0.151,0.033 0.149,0.035C0.147,0.035 0.145,0.035 0.143,0.035C0.141,0.036 0.14,0.036 0.139,0.035C0.137,0.035 0.135,0.034 0.133,0.033C0.132,0.031 0.13,0.03 0.129,0.028C0.123,0.024 0.12,0.021 0.119,0.021C0.118,0.018 0.117,0.015 0.116,0.014C0.115,0.012 0.114,0.011 0.112,0.01C0.108,0.005 0.105,0.001 0.104,-0.001C0.102,-0.004 0.101,-0.006 0.1,-0.007C0.095,-0.013 0.092,-0.017 0.092,-0.018C0.088,-0.023 0.086,-0.026 0.085,-0.026C0.085,-0.027 0.085,-0.028 0.084,-0.028C0.082,-0.033 0.08,-0.036 0.079,-0.037C0.078,-0.038 0.076,-0.039 0.075,-0.04C0.072,-0.047 0.07,-0.051 0.07,-0.052C0.07,-0.053 0.07,-0.054 0.069,-0.056C0.068,-0.058 0.067,-0.06 0.065,-0.062C0.064,-0.064 0.063,-0.066 0.062,-0.067C0.062,-0.072 0.061,-0.075 0.061,-0.076C0.061,-0.077 0.061,-0.077 0.061,-0.078L0.073,-0.086C0.075,-0.087 0.076,-0.088 0.078,-0.089C0.08,-0.09 0.081,-0.091 0.082,-0.094C0.084,-0.094 0.086,-0.094 0.087,-0.095C0.089,-0.096 0.09,-0.097 0.092,-0.099C0.097,-0.101 0.1,-0.103 0.1,-0.104C0.1,-0.105 0.101,-0.106 0.102,-0.106C0.107,-0.108 0.111,-0.11 0.113,-0.111C0.117,-0.117 0.12,-0.12 0.121,-0.121C0.122,-0.122 0.124,-0.123 0.125,-0.124C0.131,-0.129 0.134,-0.132 0.134,-0.133C0.136,-0.138 0.137,-0.141 0.139,-0.142C0.14,-0.142 0.141,-0.143 0.141,-0.145C0.142,-0.154 0.142,-0.16 0.142,-0.165C0.141,-0.17 0.14,-0.174 0.14,-0.179C0.137,-0.181 0.135,-0.184 0.134,-0.187C0.132,-0.19 0.131,-0.193 0.129,-0.195C0.124,-0.202 0.121,-0.206 0.121,-0.207C0.12,-0.208 0.119,-0.21 0.118,-0.211L0.104,-0.227C0.102,-0.229 0.101,-0.23 0.1,-0.231C0.099,-0.232 0.098,-0.234 0.097,-0.236C0.095,-0.24 0.092,-0.243 0.088,-0.246C0.083,-0.251 0.081,-0.254 0.081,-0.254C0.081,-0.255 0.081,-0.255 0.08,-0.256C0.075,-0.261 0.072,-0.264 0.071,-0.265C0.069,-0.272 0.068,-0.277 0.067,-0.278C0.065,-0.282 0.063,-0.284 0.063,-0.287C0.063,-0.289 0.062,-0.291 0.061,-0.292L0.052,-0.304C0.049,-0.31 0.048,-0.314 0.047,-0.315C0.046,-0.317 0.046,-0.318 0.046,-0.319L0.039,-0.33C0.038,-0.337 0.037,-0.341 0.036,-0.342C0.035,-0.342 0.035,-0.343 0.034,-0.345C0.03,-0.354 0.027,-0.362 0.024,-0.366C0.025,-0.371 0.025,-0.376 0.023,-0.381C0.021,-0.385 0.021,-0.389 0.022,-0.393C0.021,-0.396 0.02,-0.4 0.02,-0.406C0.02,-0.411 0.021,-0.416 0.023,-0.419C0.023,-0.424 0.024,-0.429 0.024,-0.432C0.024,-0.436 0.026,-0.438 0.028,-0.44C0.028,-0.444 0.03,-0.448 0.033,-0.452C0.036,-0.457 0.039,-0.46 0.041,-0.462C0.045,-0.467 0.047,-0.47 0.047,-0.471C0.048,-0.472 0.049,-0.473 0.05,-0.475C0.054,-0.482 0.056,-0.487 0.058,-0.489C0.06,-0.494 0.061,-0.496 0.063,-0.496C0.064,-0.496 0.065,-0.496 0.066,-0.497C0.072,-0.502 0.075,-0.507 0.078,-0.511C0.08,-0.515 0.083,-0.518 0.088,-0.52L0.094,-0.529C0.105,-0.535 0.111,-0.539 0.112,-0.542C0.117,-0.543 0.12,-0.545 0.122,-0.546C0.124,-0.547 0.126,-0.549 0.129,-0.551C0.134,-0.555 0.137,-0.558 0.138,-0.558L0.146,-0.562C0.149,-0.563 0.151,-0.564 0.153,-0.565L0.163,-0.57C0.17,-0.572 0.175,-0.575 0.178,-0.577C0.183,-0.578 0.187,-0.579 0.19,-0.579C0.198,-0.58 0.202,-0.58 0.203,-0.579C0.203,-0.578 0.204,-0.578 0.205,-0.578L0.212,-0.578Z" style="fill:rgb(16,41,91);fill-rule:nonzero;"/>
            </g>
            <g transform="matrix(1.63969,0,0,2.45107,-2615,-841.835)">
                <path d="M3920.2,638.457C3922.89,639.702 3925.93,639.933 3928.77,639.107C3964.12,628.822 4201.32,559.82 4237.26,549.365C4240.17,548.519 4242.6,546.509 4243.98,543.81C4252.04,528.018 4279.93,473.399 4279.93,473.399C4294.99,443.891 4331.18,432.166 4360.69,447.232C4390.19,462.298 4401.92,498.486 4386.85,527.994L4337.01,625.625C4329.79,639.76 4317.72,649.814 4303.87,654.798C4293.99,658.35 4274.41,663.547 4274.41,663.547L3949.33,758.099L3942.7,760.012C3942.7,760.012 3935.64,762.616 3927.88,763.775C3922.26,764.613 3916.49,764.345 3911.82,763.775C3904.53,762.883 3896.24,759.83 3891.35,757.552L3815.84,722.379C3785.81,708.389 3772.78,672.648 3786.77,642.616C3800.76,612.583 3836.5,599.558 3866.53,613.548C3866.53,613.548 3906.94,632.302 3920.2,638.457Z" style="fill:rgb(16,41,91);"/>
            </g>
            <g transform="matrix(73.5589,-51.5527,34.4872,109.959,3581.38,681.569)">
                <path d="M0.48,-0.726C0.485,-0.721 0.487,-0.718 0.487,-0.717C0.487,-0.715 0.488,-0.714 0.488,-0.713C0.49,-0.708 0.49,-0.704 0.49,-0.699C0.489,-0.695 0.489,-0.689 0.488,-0.683C0.488,-0.679 0.487,-0.676 0.488,-0.674C0.488,-0.671 0.488,-0.669 0.487,-0.667C0.487,-0.665 0.486,-0.663 0.485,-0.662C0.484,-0.66 0.483,-0.659 0.482,-0.657C0.482,-0.653 0.482,-0.649 0.482,-0.647C0.482,-0.646 0.482,-0.644 0.481,-0.643C0.479,-0.637 0.479,-0.633 0.479,-0.63C0.48,-0.628 0.48,-0.626 0.48,-0.623C0.48,-0.615 0.48,-0.611 0.478,-0.61C0.476,-0.609 0.476,-0.608 0.476,-0.606C0.477,-0.603 0.477,-0.601 0.477,-0.599C0.476,-0.597 0.475,-0.594 0.475,-0.591C0.473,-0.584 0.472,-0.579 0.471,-0.577C0.47,-0.574 0.469,-0.572 0.469,-0.569C0.466,-0.565 0.464,-0.562 0.463,-0.562C0.462,-0.561 0.462,-0.56 0.461,-0.559C0.454,-0.557 0.45,-0.557 0.448,-0.557C0.446,-0.557 0.444,-0.558 0.442,-0.558C0.435,-0.558 0.43,-0.558 0.428,-0.559C0.427,-0.56 0.425,-0.561 0.423,-0.562C0.421,-0.563 0.419,-0.563 0.417,-0.563C0.414,-0.562 0.412,-0.562 0.409,-0.563C0.403,-0.565 0.399,-0.565 0.395,-0.565C0.391,-0.565 0.388,-0.564 0.384,-0.564C0.381,-0.564 0.377,-0.565 0.375,-0.565C0.372,-0.565 0.368,-0.566 0.365,-0.567C0.363,-0.566 0.361,-0.566 0.358,-0.566C0.356,-0.567 0.353,-0.567 0.35,-0.567C0.348,-0.568 0.346,-0.568 0.343,-0.567C0.341,-0.567 0.339,-0.567 0.336,-0.567C0.335,-0.563 0.334,-0.56 0.334,-0.556C0.335,-0.553 0.335,-0.549 0.335,-0.545C0.334,-0.538 0.334,-0.534 0.334,-0.534L0.336,-0.521L0.337,-0.51L0.335,-0.488L0.338,-0.471C0.338,-0.465 0.337,-0.461 0.336,-0.457C0.335,-0.452 0.336,-0.448 0.337,-0.444C0.336,-0.437 0.337,-0.432 0.338,-0.428C0.338,-0.424 0.338,-0.422 0.337,-0.419C0.337,-0.416 0.337,-0.414 0.338,-0.412C0.337,-0.404 0.336,-0.399 0.337,-0.396C0.338,-0.394 0.338,-0.392 0.338,-0.391C0.338,-0.389 0.338,-0.387 0.337,-0.385C0.336,-0.383 0.336,-0.381 0.336,-0.379C0.336,-0.372 0.336,-0.368 0.337,-0.367C0.338,-0.365 0.337,-0.364 0.336,-0.362C0.337,-0.358 0.338,-0.354 0.338,-0.35C0.338,-0.346 0.338,-0.341 0.339,-0.337C0.34,-0.332 0.34,-0.329 0.341,-0.328C0.341,-0.327 0.342,-0.327 0.342,-0.326C0.341,-0.322 0.341,-0.318 0.343,-0.314L0.343,-0.302C0.343,-0.297 0.343,-0.291 0.342,-0.286C0.342,-0.281 0.342,-0.275 0.343,-0.27C0.343,-0.266 0.343,-0.264 0.342,-0.261C0.342,-0.259 0.342,-0.257 0.344,-0.255C0.344,-0.248 0.344,-0.245 0.343,-0.244C0.343,-0.243 0.343,-0.243 0.343,-0.241C0.344,-0.233 0.344,-0.222 0.343,-0.21L0.344,-0.191L0.344,-0.181L0.345,-0.154C0.345,-0.144 0.346,-0.138 0.347,-0.136C0.347,-0.128 0.347,-0.123 0.347,-0.121C0.347,-0.119 0.347,-0.118 0.347,-0.116C0.347,-0.113 0.348,-0.11 0.348,-0.107C0.348,-0.104 0.348,-0.101 0.349,-0.099C0.349,-0.091 0.35,-0.086 0.35,-0.084C0.35,-0.083 0.351,-0.081 0.351,-0.078L0.352,-0.064C0.352,-0.055 0.353,-0.049 0.354,-0.046C0.356,-0.037 0.357,-0.032 0.355,-0.029C0.355,-0.026 0.356,-0.024 0.356,-0.022C0.357,-0.021 0.358,-0.02 0.358,-0.019C0.357,-0.013 0.357,-0.009 0.357,-0.008C0.357,-0.007 0.357,-0.005 0.357,-0.003C0.352,0.002 0.349,0.004 0.347,0.004C0.346,0.005 0.344,0.005 0.343,0.005L0.327,0.005C0.323,0.006 0.316,0.006 0.308,0.005L0.29,0.005C0.284,0.006 0.28,0.006 0.279,0.005C0.279,0.005 0.278,0.005 0.276,0.005C0.271,0.005 0.268,0.005 0.266,0.005C0.264,0.006 0.262,0.006 0.26,0.006C0.251,0.007 0.246,0.007 0.245,0.007C0.243,0.008 0.241,0.008 0.239,0.009C0.233,0.009 0.229,0.009 0.228,0.009C0.227,0.01 0.226,0.009 0.224,0.009C0.22,0.008 0.218,0.008 0.217,0.008L0.196,0.009C0.189,0.008 0.184,0.008 0.182,0.008C0.18,0.009 0.177,0.008 0.175,0.007C0.17,0.006 0.167,0.004 0.165,0.002C0.162,-0.003 0.161,-0.005 0.16,-0.006C0.159,-0.007 0.158,-0.009 0.156,-0.011C0.157,-0.012 0.157,-0.014 0.156,-0.016C0.156,-0.018 0.155,-0.02 0.155,-0.022L0.157,-0.045C0.158,-0.049 0.158,-0.051 0.158,-0.052C0.157,-0.053 0.158,-0.054 0.158,-0.056C0.158,-0.058 0.158,-0.06 0.158,-0.062C0.159,-0.064 0.159,-0.065 0.159,-0.066L0.161,-0.09C0.163,-0.098 0.164,-0.103 0.163,-0.105C0.162,-0.108 0.162,-0.111 0.163,-0.113C0.164,-0.12 0.165,-0.123 0.165,-0.124C0.164,-0.124 0.164,-0.124 0.164,-0.125C0.164,-0.132 0.164,-0.136 0.165,-0.137C0.166,-0.137 0.166,-0.138 0.166,-0.139L0.167,-0.153C0.168,-0.162 0.169,-0.168 0.169,-0.17C0.168,-0.176 0.168,-0.18 0.168,-0.18C0.169,-0.18 0.169,-0.18 0.169,-0.181L0.169,-0.188C0.169,-0.189 0.169,-0.19 0.17,-0.191C0.17,-0.196 0.17,-0.199 0.17,-0.2C0.171,-0.201 0.171,-0.202 0.171,-0.203C0.17,-0.211 0.169,-0.216 0.169,-0.217C0.17,-0.219 0.17,-0.221 0.17,-0.224C0.169,-0.234 0.169,-0.242 0.17,-0.247C0.169,-0.251 0.169,-0.254 0.169,-0.255C0.17,-0.256 0.17,-0.257 0.17,-0.259C0.17,-0.261 0.17,-0.263 0.169,-0.265C0.169,-0.267 0.169,-0.269 0.17,-0.272L0.171,-0.301C0.17,-0.31 0.169,-0.315 0.168,-0.317C0.168,-0.319 0.168,-0.321 0.169,-0.323C0.169,-0.333 0.169,-0.34 0.169,-0.343C0.17,-0.346 0.17,-0.349 0.17,-0.353C0.17,-0.358 0.17,-0.362 0.169,-0.367C0.169,-0.371 0.169,-0.376 0.17,-0.381C0.17,-0.383 0.17,-0.385 0.171,-0.387C0.172,-0.388 0.173,-0.39 0.172,-0.394C0.173,-0.396 0.173,-0.4 0.172,-0.406C0.172,-0.412 0.172,-0.417 0.172,-0.42C0.173,-0.423 0.173,-0.426 0.174,-0.428C0.174,-0.43 0.174,-0.433 0.174,-0.437L0.174,-0.45C0.174,-0.459 0.174,-0.465 0.174,-0.468C0.173,-0.471 0.173,-0.474 0.173,-0.478L0.174,-0.492L0.174,-0.508C0.174,-0.514 0.173,-0.519 0.172,-0.524C0.172,-0.531 0.172,-0.535 0.172,-0.537C0.173,-0.538 0.173,-0.541 0.172,-0.544L0.171,-0.563C0.164,-0.562 0.159,-0.562 0.155,-0.562L0.137,-0.559C0.13,-0.558 0.126,-0.558 0.126,-0.558C0.126,-0.558 0.126,-0.559 0.125,-0.559C0.12,-0.557 0.117,-0.556 0.115,-0.556C0.114,-0.556 0.112,-0.555 0.11,-0.555C0.104,-0.554 0.101,-0.553 0.099,-0.553C0.097,-0.552 0.096,-0.552 0.095,-0.552C0.091,-0.551 0.088,-0.551 0.085,-0.551C0.083,-0.552 0.079,-0.551 0.076,-0.55L0.065,-0.548C0.06,-0.548 0.056,-0.548 0.055,-0.548C0.054,-0.549 0.053,-0.549 0.052,-0.548C0.045,-0.546 0.041,-0.545 0.04,-0.544C0.039,-0.543 0.037,-0.543 0.036,-0.542C0.031,-0.543 0.028,-0.543 0.027,-0.542C0.027,-0.542 0.026,-0.542 0.025,-0.542C0.02,-0.544 0.018,-0.545 0.018,-0.546C0.018,-0.547 0.017,-0.548 0.016,-0.547C0.015,-0.549 0.014,-0.552 0.013,-0.555C0.011,-0.557 0.01,-0.56 0.01,-0.563C0.009,-0.567 0.009,-0.57 0.01,-0.574C0.011,-0.578 0.012,-0.582 0.013,-0.586C0.013,-0.59 0.014,-0.594 0.014,-0.597C0.014,-0.603 0.015,-0.607 0.017,-0.609C0.016,-0.616 0.016,-0.62 0.016,-0.623C0.016,-0.625 0.016,-0.627 0.017,-0.629C0.018,-0.636 0.02,-0.64 0.021,-0.642C0.021,-0.65 0.022,-0.656 0.022,-0.658C0.024,-0.663 0.025,-0.667 0.025,-0.669C0.025,-0.672 0.025,-0.674 0.025,-0.677C0.025,-0.679 0.026,-0.682 0.026,-0.684C0.027,-0.686 0.027,-0.688 0.027,-0.691C0.028,-0.696 0.028,-0.701 0.029,-0.705C0.029,-0.71 0.03,-0.714 0.03,-0.717C0.032,-0.718 0.033,-0.719 0.034,-0.721C0.035,-0.722 0.037,-0.724 0.038,-0.726C0.045,-0.727 0.049,-0.728 0.049,-0.728C0.057,-0.728 0.064,-0.727 0.07,-0.727C0.076,-0.727 0.083,-0.726 0.09,-0.726C0.098,-0.724 0.104,-0.723 0.107,-0.723C0.111,-0.723 0.114,-0.724 0.117,-0.725C0.121,-0.725 0.125,-0.725 0.129,-0.725C0.134,-0.724 0.137,-0.724 0.14,-0.725C0.141,-0.725 0.143,-0.724 0.147,-0.724C0.151,-0.724 0.154,-0.724 0.156,-0.726C0.158,-0.725 0.159,-0.725 0.161,-0.725C0.163,-0.725 0.165,-0.726 0.167,-0.726C0.17,-0.725 0.174,-0.725 0.18,-0.725C0.184,-0.724 0.188,-0.724 0.192,-0.724C0.195,-0.724 0.199,-0.723 0.201,-0.722C0.207,-0.722 0.211,-0.723 0.212,-0.723C0.214,-0.723 0.215,-0.722 0.217,-0.722C0.225,-0.722 0.23,-0.722 0.232,-0.722C0.234,-0.722 0.236,-0.723 0.238,-0.723C0.241,-0.723 0.245,-0.722 0.25,-0.721C0.26,-0.722 0.266,-0.722 0.269,-0.722C0.272,-0.722 0.275,-0.722 0.278,-0.722C0.28,-0.722 0.282,-0.722 0.284,-0.722C0.286,-0.722 0.289,-0.722 0.292,-0.722C0.296,-0.72 0.298,-0.72 0.299,-0.721C0.3,-0.721 0.301,-0.721 0.303,-0.721C0.307,-0.721 0.311,-0.721 0.316,-0.72C0.322,-0.72 0.326,-0.72 0.33,-0.721C0.336,-0.721 0.341,-0.721 0.346,-0.722C0.35,-0.722 0.355,-0.722 0.359,-0.722C0.369,-0.722 0.376,-0.722 0.38,-0.721C0.384,-0.72 0.388,-0.72 0.394,-0.721L0.404,-0.723C0.406,-0.723 0.408,-0.724 0.411,-0.724C0.414,-0.724 0.417,-0.725 0.42,-0.726C0.428,-0.725 0.434,-0.725 0.436,-0.726C0.438,-0.727 0.44,-0.727 0.444,-0.727C0.454,-0.727 0.461,-0.727 0.466,-0.726C0.47,-0.724 0.475,-0.724 0.48,-0.726Z" style="fill:rgb(16,41,91);fill-rule:nonzero;"/>
            </g>
            <g transform="matrix(80.4653,-16.7537,11.2077,120.283,3604.74,656.56)">
                <path d="M0.238,-0.436C0.242,-0.434 0.245,-0.434 0.249,-0.434C0.253,-0.434 0.257,-0.434 0.261,-0.433L0.271,-0.43C0.285,-0.43 0.297,-0.43 0.307,-0.431L0.339,-0.432C0.345,-0.432 0.351,-0.431 0.356,-0.431C0.362,-0.431 0.368,-0.431 0.373,-0.432L0.384,-0.432L0.403,-0.433C0.402,-0.437 0.402,-0.441 0.402,-0.445C0.402,-0.448 0.402,-0.452 0.402,-0.455C0.402,-0.458 0.402,-0.46 0.401,-0.462C0.401,-0.465 0.4,-0.467 0.4,-0.47C0.401,-0.475 0.401,-0.478 0.401,-0.479C0.401,-0.48 0.4,-0.481 0.4,-0.482C0.402,-0.49 0.402,-0.493 0.402,-0.493C0.402,-0.493 0.401,-0.493 0.401,-0.494C0.402,-0.501 0.402,-0.505 0.4,-0.508C0.4,-0.51 0.399,-0.515 0.399,-0.521C0.399,-0.523 0.4,-0.525 0.4,-0.527C0.401,-0.528 0.401,-0.53 0.401,-0.532C0.401,-0.534 0.401,-0.536 0.4,-0.538C0.4,-0.54 0.399,-0.543 0.399,-0.546L0.399,-0.557L0.398,-0.57C0.398,-0.576 0.398,-0.581 0.398,-0.587L0.398,-0.601C0.397,-0.607 0.396,-0.611 0.395,-0.612C0.394,-0.613 0.394,-0.614 0.394,-0.614C0.393,-0.621 0.393,-0.626 0.395,-0.629C0.393,-0.634 0.392,-0.638 0.392,-0.641C0.392,-0.644 0.391,-0.647 0.39,-0.65C0.389,-0.652 0.389,-0.653 0.389,-0.655C0.389,-0.657 0.39,-0.659 0.39,-0.661C0.389,-0.664 0.389,-0.667 0.388,-0.669C0.388,-0.672 0.388,-0.675 0.388,-0.679C0.388,-0.685 0.388,-0.688 0.388,-0.689C0.387,-0.69 0.387,-0.691 0.387,-0.692C0.387,-0.699 0.388,-0.702 0.389,-0.703C0.389,-0.703 0.389,-0.704 0.389,-0.705C0.394,-0.71 0.397,-0.713 0.397,-0.714C0.403,-0.717 0.407,-0.718 0.409,-0.718C0.411,-0.717 0.413,-0.717 0.415,-0.717C0.423,-0.717 0.428,-0.717 0.429,-0.717C0.431,-0.716 0.432,-0.716 0.434,-0.716C0.441,-0.716 0.445,-0.717 0.447,-0.716C0.448,-0.716 0.45,-0.716 0.451,-0.717L0.463,-0.717C0.469,-0.717 0.472,-0.718 0.473,-0.717C0.473,-0.717 0.474,-0.717 0.476,-0.717C0.483,-0.718 0.489,-0.719 0.492,-0.718C0.495,-0.718 0.497,-0.718 0.498,-0.719C0.504,-0.719 0.507,-0.719 0.509,-0.721C0.511,-0.721 0.513,-0.72 0.516,-0.72C0.518,-0.719 0.521,-0.719 0.524,-0.721C0.533,-0.718 0.539,-0.718 0.544,-0.721C0.547,-0.719 0.549,-0.718 0.551,-0.718C0.554,-0.717 0.556,-0.717 0.56,-0.717C0.567,-0.712 0.57,-0.709 0.569,-0.708C0.569,-0.707 0.569,-0.706 0.57,-0.706C0.572,-0.699 0.573,-0.695 0.574,-0.694C0.574,-0.693 0.574,-0.692 0.574,-0.69C0.572,-0.682 0.571,-0.676 0.571,-0.673C0.571,-0.67 0.571,-0.668 0.569,-0.665C0.569,-0.659 0.569,-0.656 0.569,-0.654C0.569,-0.653 0.568,-0.651 0.567,-0.648C0.567,-0.641 0.566,-0.636 0.566,-0.636C0.566,-0.635 0.565,-0.634 0.565,-0.633L0.566,-0.622C0.566,-0.614 0.566,-0.61 0.566,-0.609C0.566,-0.608 0.566,-0.607 0.566,-0.605C0.566,-0.601 0.566,-0.596 0.565,-0.592C0.565,-0.587 0.565,-0.583 0.566,-0.578C0.566,-0.576 0.566,-0.573 0.566,-0.57C0.566,-0.567 0.565,-0.564 0.564,-0.561C0.564,-0.555 0.564,-0.551 0.563,-0.551C0.562,-0.55 0.562,-0.549 0.562,-0.548C0.563,-0.541 0.563,-0.536 0.562,-0.533C0.561,-0.531 0.561,-0.528 0.561,-0.524C0.561,-0.519 0.561,-0.516 0.561,-0.514C0.561,-0.513 0.562,-0.51 0.562,-0.508C0.561,-0.503 0.56,-0.499 0.56,-0.494C0.559,-0.489 0.559,-0.484 0.561,-0.479C0.559,-0.471 0.558,-0.468 0.558,-0.467C0.558,-0.467 0.558,-0.466 0.558,-0.466C0.559,-0.458 0.56,-0.454 0.56,-0.453C0.56,-0.45 0.559,-0.447 0.559,-0.445C0.559,-0.443 0.559,-0.44 0.561,-0.437C0.564,-0.435 0.568,-0.435 0.572,-0.437C0.575,-0.436 0.577,-0.435 0.58,-0.434C0.583,-0.433 0.586,-0.433 0.589,-0.435C0.59,-0.433 0.592,-0.432 0.594,-0.432C0.596,-0.431 0.597,-0.43 0.599,-0.428L0.603,-0.414C0.604,-0.41 0.605,-0.407 0.604,-0.403C0.604,-0.4 0.603,-0.397 0.603,-0.395C0.601,-0.391 0.601,-0.388 0.601,-0.386C0.601,-0.384 0.601,-0.382 0.601,-0.38C0.601,-0.378 0.6,-0.376 0.6,-0.374C0.599,-0.372 0.599,-0.37 0.599,-0.368C0.598,-0.365 0.598,-0.361 0.598,-0.357C0.598,-0.353 0.597,-0.349 0.597,-0.345L0.594,-0.328C0.592,-0.322 0.591,-0.318 0.591,-0.316C0.59,-0.313 0.589,-0.31 0.589,-0.308C0.59,-0.306 0.59,-0.305 0.589,-0.304C0.587,-0.301 0.586,-0.299 0.586,-0.298C0.586,-0.297 0.585,-0.295 0.584,-0.294C0.584,-0.289 0.583,-0.285 0.582,-0.284C0.581,-0.282 0.579,-0.28 0.578,-0.278C0.57,-0.279 0.566,-0.279 0.566,-0.279C0.566,-0.279 0.564,-0.279 0.562,-0.278C0.56,-0.277 0.56,-0.273 0.56,-0.268C0.558,-0.262 0.558,-0.258 0.558,-0.256L0.56,-0.235C0.56,-0.231 0.559,-0.226 0.558,-0.22C0.558,-0.212 0.558,-0.208 0.558,-0.208C0.558,-0.207 0.559,-0.206 0.559,-0.205C0.558,-0.201 0.558,-0.199 0.559,-0.198C0.559,-0.197 0.56,-0.196 0.56,-0.194C0.56,-0.192 0.56,-0.189 0.56,-0.187C0.56,-0.184 0.56,-0.181 0.561,-0.179C0.563,-0.168 0.564,-0.161 0.564,-0.157C0.564,-0.153 0.564,-0.149 0.564,-0.145C0.564,-0.141 0.565,-0.136 0.566,-0.131C0.566,-0.126 0.566,-0.123 0.567,-0.122C0.568,-0.121 0.568,-0.12 0.568,-0.119C0.568,-0.113 0.568,-0.109 0.568,-0.109C0.568,-0.109 0.567,-0.109 0.567,-0.108C0.569,-0.103 0.569,-0.099 0.569,-0.099C0.569,-0.098 0.568,-0.097 0.568,-0.097L0.57,-0.085L0.573,-0.073C0.573,-0.071 0.573,-0.068 0.573,-0.064C0.572,-0.061 0.573,-0.059 0.574,-0.057C0.577,-0.049 0.578,-0.045 0.579,-0.043C0.579,-0.042 0.58,-0.041 0.581,-0.04C0.582,-0.032 0.582,-0.028 0.582,-0.026C0.581,-0.024 0.581,-0.022 0.581,-0.02L0.581,-0.007C0.581,-0.006 0.581,-0.005 0.58,-0.004C0.574,0.001 0.57,0.004 0.569,0.004C0.567,0.004 0.566,0.005 0.566,0.006C0.56,0.005 0.556,0.004 0.554,0.004C0.553,0.005 0.55,0.005 0.548,0.005C0.543,0.004 0.539,0.005 0.536,0.006C0.535,0.005 0.533,0.005 0.53,0.005C0.527,0.006 0.525,0.006 0.523,0.006C0.51,0.005 0.499,0.005 0.49,0.006C0.481,0.005 0.475,0.005 0.471,0.006C0.468,0.007 0.464,0.007 0.461,0.006C0.452,0.005 0.446,0.004 0.443,0.005C0.44,0.006 0.436,0.007 0.432,0.006C0.43,0.005 0.429,0.005 0.427,0.004C0.425,0.004 0.423,0.003 0.42,0.002C0.415,0.001 0.41,-0.001 0.407,-0.003C0.407,-0.007 0.406,-0.012 0.404,-0.017C0.403,-0.022 0.403,-0.026 0.403,-0.028C0.403,-0.03 0.403,-0.032 0.403,-0.033C0.403,-0.039 0.404,-0.042 0.404,-0.042C0.405,-0.042 0.405,-0.043 0.405,-0.044C0.406,-0.051 0.406,-0.055 0.406,-0.055C0.405,-0.055 0.405,-0.055 0.405,-0.057C0.407,-0.062 0.407,-0.066 0.407,-0.069C0.409,-0.073 0.409,-0.076 0.409,-0.077C0.408,-0.078 0.408,-0.079 0.408,-0.082C0.409,-0.088 0.409,-0.092 0.407,-0.095L0.408,-0.111L0.408,-0.123C0.408,-0.132 0.407,-0.137 0.408,-0.14C0.408,-0.143 0.408,-0.146 0.407,-0.149C0.409,-0.157 0.409,-0.162 0.408,-0.165C0.408,-0.168 0.407,-0.17 0.407,-0.173C0.408,-0.179 0.408,-0.183 0.408,-0.185C0.407,-0.186 0.407,-0.188 0.407,-0.189C0.406,-0.195 0.405,-0.198 0.406,-0.198C0.406,-0.199 0.406,-0.2 0.406,-0.2C0.406,-0.207 0.406,-0.212 0.405,-0.215C0.404,-0.218 0.403,-0.222 0.403,-0.226C0.404,-0.23 0.404,-0.233 0.403,-0.235C0.402,-0.236 0.402,-0.239 0.403,-0.241C0.404,-0.244 0.404,-0.246 0.404,-0.248C0.403,-0.249 0.403,-0.251 0.403,-0.252C0.403,-0.257 0.402,-0.262 0.402,-0.265C0.402,-0.269 0.401,-0.272 0.399,-0.276C0.392,-0.276 0.389,-0.276 0.388,-0.276C0.388,-0.277 0.387,-0.277 0.386,-0.277C0.38,-0.277 0.377,-0.278 0.376,-0.278C0.375,-0.278 0.374,-0.278 0.373,-0.278C0.365,-0.276 0.359,-0.276 0.355,-0.276C0.352,-0.276 0.349,-0.276 0.346,-0.276C0.337,-0.275 0.331,-0.275 0.328,-0.275C0.324,-0.275 0.32,-0.275 0.315,-0.275C0.31,-0.275 0.307,-0.275 0.307,-0.275C0.306,-0.275 0.305,-0.275 0.305,-0.275C0.298,-0.276 0.294,-0.276 0.292,-0.276C0.291,-0.276 0.289,-0.275 0.288,-0.275C0.285,-0.275 0.28,-0.276 0.273,-0.277C0.271,-0.277 0.269,-0.278 0.267,-0.278C0.265,-0.279 0.263,-0.279 0.261,-0.278C0.254,-0.278 0.25,-0.278 0.248,-0.278C0.246,-0.278 0.244,-0.278 0.243,-0.278C0.237,-0.276 0.234,-0.274 0.234,-0.272L0.234,-0.268C0.234,-0.261 0.234,-0.257 0.234,-0.255C0.235,-0.254 0.235,-0.252 0.235,-0.251C0.235,-0.243 0.235,-0.237 0.235,-0.234C0.236,-0.231 0.236,-0.228 0.236,-0.225C0.238,-0.217 0.238,-0.214 0.238,-0.213C0.238,-0.201 0.237,-0.191 0.236,-0.185C0.234,-0.178 0.235,-0.172 0.238,-0.165C0.238,-0.163 0.237,-0.161 0.238,-0.159C0.238,-0.156 0.238,-0.154 0.238,-0.15L0.237,-0.137C0.237,-0.133 0.238,-0.129 0.239,-0.125C0.24,-0.12 0.24,-0.116 0.24,-0.111C0.24,-0.109 0.24,-0.107 0.239,-0.104C0.239,-0.101 0.239,-0.099 0.241,-0.098C0.24,-0.094 0.24,-0.092 0.24,-0.089C0.241,-0.087 0.242,-0.085 0.242,-0.082C0.242,-0.075 0.243,-0.07 0.243,-0.068C0.244,-0.066 0.244,-0.064 0.244,-0.061C0.244,-0.056 0.244,-0.053 0.245,-0.052C0.246,-0.051 0.246,-0.05 0.246,-0.049C0.245,-0.044 0.245,-0.042 0.246,-0.041C0.246,-0.04 0.246,-0.039 0.245,-0.038C0.245,-0.034 0.245,-0.031 0.246,-0.029C0.246,-0.027 0.245,-0.025 0.244,-0.023C0.243,-0.015 0.243,-0.01 0.241,-0.008C0.237,-0.002 0.235,0.001 0.235,0.002C0.235,0.003 0.235,0.003 0.233,0.004C0.227,0.007 0.223,0.008 0.222,0.01C0.215,0.01 0.211,0.01 0.21,0.01C0.21,0.011 0.21,0.011 0.209,0.011C0.201,0.012 0.193,0.013 0.188,0.013C0.182,0.013 0.177,0.013 0.173,0.015C0.167,0.014 0.163,0.014 0.16,0.015C0.157,0.016 0.154,0.017 0.15,0.017C0.148,0.017 0.145,0.016 0.14,0.015C0.133,0.015 0.13,0.016 0.129,0.016C0.124,0.014 0.12,0.014 0.119,0.014C0.118,0.014 0.117,0.013 0.115,0.012C0.107,0.012 0.103,0.013 0.103,0.013C0.103,0.014 0.102,0.014 0.102,0.014C0.096,0.014 0.091,0.015 0.087,0.016C0.084,0.017 0.08,0.016 0.077,0.014C0.074,0.014 0.071,0.014 0.068,0.014C0.066,0.014 0.063,0.014 0.061,0.013C0.057,0.01 0.055,0.007 0.054,0.004C0.052,0.001 0.052,-0.003 0.052,-0.007C0.05,-0.013 0.05,-0.019 0.052,-0.025L0.055,-0.044C0.056,-0.05 0.056,-0.053 0.056,-0.053C0.056,-0.054 0.056,-0.054 0.056,-0.056C0.057,-0.062 0.057,-0.067 0.056,-0.07C0.055,-0.073 0.055,-0.075 0.056,-0.076C0.056,-0.078 0.056,-0.08 0.056,-0.082C0.056,-0.083 0.057,-0.085 0.058,-0.087C0.058,-0.094 0.058,-0.099 0.057,-0.102C0.057,-0.11 0.058,-0.116 0.058,-0.12C0.058,-0.124 0.058,-0.128 0.06,-0.132C0.058,-0.133 0.058,-0.135 0.058,-0.136C0.058,-0.138 0.058,-0.14 0.058,-0.143C0.057,-0.146 0.057,-0.151 0.059,-0.155C0.06,-0.159 0.061,-0.163 0.061,-0.166C0.061,-0.174 0.062,-0.179 0.063,-0.182C0.063,-0.184 0.063,-0.187 0.063,-0.19C0.065,-0.2 0.065,-0.208 0.065,-0.212C0.065,-0.217 0.064,-0.222 0.064,-0.228L0.065,-0.243C0.064,-0.252 0.064,-0.257 0.064,-0.26C0.065,-0.262 0.065,-0.265 0.063,-0.268C0.064,-0.275 0.064,-0.28 0.063,-0.282C0.063,-0.283 0.063,-0.285 0.065,-0.286C0.065,-0.299 0.064,-0.309 0.063,-0.317C0.063,-0.326 0.063,-0.334 0.064,-0.341C0.064,-0.343 0.065,-0.345 0.066,-0.346C0.067,-0.348 0.067,-0.35 0.067,-0.352L0.066,-0.372C0.066,-0.377 0.066,-0.381 0.066,-0.383C0.067,-0.386 0.068,-0.388 0.068,-0.39C0.069,-0.392 0.069,-0.394 0.069,-0.397C0.069,-0.401 0.068,-0.404 0.068,-0.407C0.068,-0.412 0.068,-0.416 0.069,-0.42C0.069,-0.427 0.069,-0.432 0.07,-0.434C0.07,-0.436 0.07,-0.439 0.069,-0.441C0.067,-0.455 0.067,-0.466 0.068,-0.474C0.067,-0.476 0.066,-0.479 0.066,-0.482L0.066,-0.491C0.066,-0.5 0.066,-0.505 0.064,-0.505C0.066,-0.517 0.067,-0.525 0.067,-0.531C0.067,-0.537 0.066,-0.544 0.065,-0.551C0.065,-0.555 0.064,-0.559 0.063,-0.563C0.063,-0.567 0.063,-0.572 0.065,-0.576C0.064,-0.585 0.064,-0.59 0.064,-0.592C0.064,-0.594 0.064,-0.595 0.064,-0.597C0.064,-0.599 0.063,-0.602 0.062,-0.604C0.06,-0.607 0.059,-0.61 0.059,-0.612C0.059,-0.616 0.059,-0.62 0.059,-0.623C0.059,-0.625 0.058,-0.628 0.058,-0.63C0.057,-0.636 0.056,-0.641 0.056,-0.645C0.056,-0.648 0.055,-0.652 0.054,-0.655C0.052,-0.659 0.052,-0.662 0.052,-0.664C0.053,-0.666 0.052,-0.668 0.052,-0.669C0.05,-0.676 0.05,-0.68 0.05,-0.681C0.051,-0.682 0.051,-0.683 0.051,-0.685L0.051,-0.695C0.051,-0.698 0.051,-0.701 0.052,-0.704C0.059,-0.709 0.063,-0.711 0.065,-0.711C0.067,-0.712 0.068,-0.712 0.069,-0.711C0.075,-0.715 0.078,-0.717 0.081,-0.718C0.084,-0.718 0.086,-0.72 0.087,-0.722C0.09,-0.722 0.092,-0.722 0.094,-0.723C0.096,-0.724 0.098,-0.725 0.1,-0.725L0.111,-0.725C0.113,-0.725 0.115,-0.726 0.117,-0.726C0.118,-0.726 0.12,-0.726 0.122,-0.727C0.129,-0.728 0.134,-0.729 0.136,-0.729C0.139,-0.73 0.14,-0.73 0.141,-0.729C0.144,-0.729 0.146,-0.729 0.148,-0.73C0.15,-0.731 0.152,-0.732 0.154,-0.732C0.158,-0.733 0.161,-0.734 0.166,-0.734C0.171,-0.734 0.175,-0.734 0.181,-0.733C0.187,-0.733 0.191,-0.734 0.193,-0.734C0.195,-0.735 0.198,-0.736 0.201,-0.736C0.207,-0.736 0.211,-0.736 0.212,-0.736C0.214,-0.736 0.215,-0.736 0.217,-0.735C0.22,-0.735 0.223,-0.734 0.225,-0.733C0.227,-0.732 0.229,-0.731 0.232,-0.731C0.234,-0.728 0.235,-0.726 0.237,-0.725C0.239,-0.724 0.241,-0.723 0.242,-0.721C0.243,-0.714 0.244,-0.711 0.243,-0.71C0.243,-0.709 0.243,-0.709 0.244,-0.708C0.242,-0.702 0.241,-0.699 0.242,-0.699C0.242,-0.698 0.242,-0.698 0.242,-0.696C0.242,-0.694 0.242,-0.692 0.241,-0.689C0.24,-0.687 0.24,-0.685 0.241,-0.683C0.24,-0.681 0.239,-0.679 0.239,-0.676C0.238,-0.674 0.238,-0.671 0.236,-0.668C0.236,-0.667 0.236,-0.665 0.235,-0.662C0.235,-0.66 0.235,-0.657 0.235,-0.655L0.234,-0.645C0.234,-0.641 0.233,-0.638 0.233,-0.634C0.233,-0.632 0.233,-0.629 0.233,-0.626C0.233,-0.624 0.233,-0.62 0.233,-0.617C0.233,-0.615 0.233,-0.612 0.233,-0.611C0.234,-0.609 0.234,-0.608 0.234,-0.606C0.233,-0.604 0.233,-0.603 0.233,-0.601C0.233,-0.599 0.233,-0.597 0.233,-0.595C0.234,-0.588 0.234,-0.585 0.234,-0.584C0.234,-0.584 0.234,-0.584 0.235,-0.584C0.234,-0.579 0.234,-0.576 0.234,-0.574C0.235,-0.573 0.235,-0.572 0.235,-0.57C0.235,-0.566 0.234,-0.563 0.234,-0.561C0.234,-0.558 0.235,-0.556 0.236,-0.555C0.234,-0.545 0.233,-0.539 0.233,-0.536C0.233,-0.533 0.234,-0.53 0.235,-0.527C0.233,-0.522 0.233,-0.518 0.233,-0.515C0.233,-0.511 0.233,-0.508 0.233,-0.505C0.233,-0.5 0.233,-0.496 0.232,-0.493C0.232,-0.489 0.232,-0.486 0.232,-0.482L0.234,-0.469C0.236,-0.463 0.236,-0.46 0.236,-0.459C0.236,-0.459 0.235,-0.459 0.235,-0.458C0.237,-0.451 0.237,-0.446 0.237,-0.443C0.236,-0.441 0.237,-0.438 0.238,-0.436Z" style="fill:rgb(16,41,91);fill-rule:nonzero;"/>
            </g>
            <g transform="matrix(74.2734,-49.2104,32.9202,111.027,3663.94,639.626)">
                <path d="M0.483,-0.418C0.483,-0.415 0.484,-0.413 0.485,-0.412C0.487,-0.41 0.487,-0.408 0.487,-0.406C0.487,-0.399 0.487,-0.393 0.487,-0.389C0.486,-0.385 0.486,-0.381 0.486,-0.377C0.484,-0.368 0.483,-0.362 0.482,-0.357C0.482,-0.35 0.482,-0.344 0.48,-0.341C0.479,-0.338 0.478,-0.335 0.478,-0.332C0.476,-0.329 0.475,-0.325 0.475,-0.321C0.475,-0.317 0.474,-0.312 0.474,-0.307C0.472,-0.299 0.471,-0.295 0.47,-0.292C0.469,-0.29 0.469,-0.288 0.469,-0.287C0.469,-0.279 0.468,-0.275 0.467,-0.273C0.466,-0.271 0.465,-0.27 0.465,-0.268C0.464,-0.26 0.464,-0.256 0.463,-0.254C0.463,-0.253 0.462,-0.252 0.461,-0.251C0.453,-0.249 0.449,-0.249 0.449,-0.25C0.448,-0.25 0.448,-0.252 0.446,-0.253C0.439,-0.256 0.434,-0.257 0.431,-0.258C0.428,-0.259 0.426,-0.261 0.425,-0.264L0.408,-0.267C0.402,-0.27 0.398,-0.272 0.394,-0.272C0.39,-0.273 0.388,-0.274 0.386,-0.276C0.379,-0.279 0.375,-0.28 0.373,-0.28L0.368,-0.28C0.365,-0.282 0.361,-0.282 0.357,-0.281C0.35,-0.281 0.346,-0.28 0.345,-0.281C0.343,-0.281 0.342,-0.281 0.34,-0.281C0.336,-0.281 0.333,-0.28 0.331,-0.281C0.329,-0.281 0.327,-0.281 0.324,-0.281C0.318,-0.281 0.315,-0.281 0.314,-0.281C0.313,-0.28 0.312,-0.28 0.311,-0.28C0.307,-0.281 0.304,-0.282 0.302,-0.282C0.299,-0.283 0.297,-0.283 0.294,-0.282C0.286,-0.282 0.281,-0.282 0.277,-0.28C0.27,-0.28 0.265,-0.28 0.261,-0.278C0.258,-0.277 0.254,-0.276 0.25,-0.276C0.247,-0.276 0.245,-0.276 0.243,-0.276C0.24,-0.277 0.238,-0.277 0.234,-0.276C0.233,-0.275 0.232,-0.273 0.232,-0.269C0.232,-0.265 0.233,-0.263 0.234,-0.261C0.233,-0.257 0.233,-0.254 0.233,-0.251C0.233,-0.249 0.233,-0.245 0.233,-0.242C0.233,-0.238 0.233,-0.235 0.232,-0.233C0.232,-0.231 0.231,-0.229 0.231,-0.228C0.231,-0.225 0.231,-0.222 0.231,-0.22C0.231,-0.217 0.231,-0.214 0.231,-0.211C0.231,-0.206 0.231,-0.201 0.231,-0.196C0.232,-0.188 0.231,-0.181 0.229,-0.176C0.228,-0.171 0.229,-0.167 0.231,-0.163C0.233,-0.157 0.235,-0.154 0.236,-0.152C0.242,-0.152 0.246,-0.151 0.248,-0.15C0.249,-0.15 0.251,-0.15 0.252,-0.151C0.253,-0.15 0.255,-0.149 0.257,-0.149C0.26,-0.149 0.262,-0.148 0.264,-0.146L0.278,-0.146L0.29,-0.145C0.298,-0.144 0.303,-0.144 0.305,-0.144L0.311,-0.144C0.318,-0.143 0.322,-0.142 0.323,-0.142C0.33,-0.142 0.334,-0.143 0.334,-0.143C0.337,-0.142 0.34,-0.141 0.343,-0.141C0.345,-0.14 0.347,-0.14 0.349,-0.142C0.353,-0.142 0.355,-0.142 0.356,-0.143C0.357,-0.143 0.358,-0.144 0.359,-0.144C0.365,-0.146 0.369,-0.146 0.37,-0.146C0.371,-0.145 0.372,-0.145 0.373,-0.146C0.378,-0.148 0.382,-0.149 0.386,-0.148C0.39,-0.147 0.395,-0.146 0.4,-0.146C0.408,-0.146 0.412,-0.147 0.415,-0.147C0.418,-0.147 0.42,-0.147 0.423,-0.147C0.426,-0.148 0.43,-0.149 0.433,-0.149C0.437,-0.15 0.441,-0.151 0.445,-0.151L0.468,-0.151C0.474,-0.151 0.478,-0.151 0.479,-0.151C0.48,-0.152 0.481,-0.151 0.481,-0.149L0.497,-0.149C0.502,-0.149 0.506,-0.149 0.509,-0.147C0.509,-0.142 0.509,-0.138 0.51,-0.137C0.51,-0.136 0.511,-0.135 0.511,-0.134C0.511,-0.132 0.511,-0.13 0.511,-0.127C0.51,-0.125 0.51,-0.123 0.512,-0.122C0.509,-0.12 0.508,-0.117 0.508,-0.113C0.508,-0.109 0.507,-0.104 0.507,-0.1C0.506,-0.097 0.506,-0.095 0.505,-0.093L0.499,-0.077C0.498,-0.075 0.496,-0.073 0.495,-0.07C0.492,-0.061 0.49,-0.055 0.49,-0.052C0.489,-0.049 0.489,-0.045 0.487,-0.042C0.483,-0.035 0.481,-0.031 0.481,-0.029C0.481,-0.027 0.48,-0.026 0.478,-0.024C0.478,-0.021 0.478,-0.017 0.477,-0.015C0.475,-0.012 0.474,-0.009 0.473,-0.007C0.471,-0.002 0.471,0.001 0.471,0.002C0.472,0.003 0.471,0.004 0.471,0.004C0.465,0.007 0.462,0.009 0.461,0.008C0.46,0.008 0.458,0.008 0.457,0.009L0.441,0.012C0.438,0.012 0.435,0.011 0.433,0.011C0.43,0.01 0.427,0.01 0.424,0.01C0.418,0.01 0.415,0.01 0.414,0.01C0.413,0.011 0.412,0.01 0.411,0.01C0.406,0.008 0.402,0.008 0.4,0.008C0.398,0.009 0.396,0.008 0.394,0.008C0.388,0.008 0.382,0.007 0.376,0.006C0.371,0.005 0.366,0.005 0.36,0.006C0.356,0.004 0.351,0.003 0.345,0.004L0.322,0.004C0.316,0.005 0.312,0.005 0.311,0.004C0.31,0.004 0.309,0.004 0.309,0.004C0.302,0.004 0.298,0.004 0.296,0.004C0.295,0.005 0.293,0.005 0.292,0.005C0.289,0.005 0.286,0.005 0.284,0.004C0.281,0.004 0.278,0.004 0.274,0.005C0.269,0.006 0.265,0.007 0.262,0.006C0.258,0.005 0.256,0.006 0.255,0.008C0.252,0.007 0.249,0.007 0.248,0.006C0.246,0.006 0.245,0.006 0.244,0.007C0.242,0.006 0.238,0.005 0.234,0.006C0.23,0.007 0.226,0.008 0.223,0.008C0.22,0.007 0.217,0.006 0.214,0.007C0.211,0.008 0.208,0.008 0.205,0.008L0.198,0.008C0.195,0.008 0.192,0.008 0.19,0.01C0.183,0.008 0.18,0.007 0.18,0.007C0.169,0.007 0.156,0.007 0.143,0.008C0.135,0.006 0.129,0.005 0.125,0.005C0.12,0.005 0.117,0.005 0.114,0.004L0.09,0.004C0.087,0.005 0.083,0.004 0.081,0.002C0.078,0 0.075,-0.001 0.071,-0.001C0.065,-0.005 0.061,-0.007 0.061,-0.008L0.054,-0.018C0.052,-0.021 0.051,-0.024 0.05,-0.025C0.05,-0.027 0.05,-0.028 0.05,-0.028C0.051,-0.036 0.052,-0.041 0.053,-0.043C0.054,-0.051 0.055,-0.055 0.055,-0.056C0.056,-0.057 0.056,-0.058 0.056,-0.06C0.056,-0.062 0.056,-0.064 0.056,-0.066C0.056,-0.068 0.056,-0.07 0.056,-0.072C0.057,-0.081 0.057,-0.086 0.057,-0.089C0.057,-0.091 0.057,-0.094 0.058,-0.098C0.058,-0.1 0.059,-0.103 0.059,-0.106C0.059,-0.109 0.059,-0.112 0.06,-0.114C0.06,-0.116 0.061,-0.119 0.062,-0.122C0.063,-0.125 0.063,-0.128 0.062,-0.131C0.06,-0.137 0.06,-0.14 0.06,-0.141C0.06,-0.141 0.061,-0.142 0.061,-0.144C0.061,-0.152 0.062,-0.158 0.062,-0.16L0.062,-0.174L0.061,-0.185C0.061,-0.194 0.061,-0.2 0.061,-0.202C0.061,-0.205 0.06,-0.208 0.06,-0.211C0.06,-0.217 0.059,-0.222 0.059,-0.226C0.058,-0.23 0.058,-0.233 0.059,-0.234C0.059,-0.236 0.06,-0.237 0.06,-0.239C0.06,-0.244 0.06,-0.249 0.06,-0.255C0.06,-0.26 0.06,-0.263 0.06,-0.264C0.06,-0.265 0.06,-0.267 0.06,-0.27C0.058,-0.279 0.058,-0.286 0.058,-0.291C0.058,-0.296 0.059,-0.301 0.06,-0.307C0.06,-0.313 0.059,-0.316 0.059,-0.316C0.059,-0.316 0.059,-0.317 0.059,-0.318C0.058,-0.322 0.058,-0.325 0.058,-0.328C0.058,-0.331 0.058,-0.333 0.058,-0.335C0.056,-0.341 0.056,-0.348 0.058,-0.355L0.058,-0.362C0.058,-0.364 0.058,-0.366 0.059,-0.368C0.059,-0.37 0.059,-0.372 0.06,-0.374C0.06,-0.375 0.061,-0.377 0.061,-0.379C0.06,-0.387 0.06,-0.391 0.06,-0.392C0.06,-0.392 0.061,-0.393 0.061,-0.395C0.062,-0.4 0.062,-0.406 0.06,-0.41L0.062,-0.425C0.063,-0.428 0.064,-0.431 0.064,-0.433C0.065,-0.435 0.065,-0.437 0.063,-0.44C0.062,-0.446 0.06,-0.451 0.06,-0.454C0.06,-0.457 0.06,-0.46 0.06,-0.463C0.059,-0.467 0.059,-0.472 0.06,-0.475C0.061,-0.479 0.061,-0.483 0.06,-0.488C0.06,-0.494 0.06,-0.498 0.06,-0.5C0.06,-0.502 0.06,-0.504 0.06,-0.506L0.062,-0.521C0.063,-0.53 0.064,-0.535 0.064,-0.537C0.064,-0.539 0.064,-0.541 0.064,-0.543C0.064,-0.546 0.064,-0.55 0.063,-0.554C0.063,-0.558 0.063,-0.563 0.064,-0.568C0.065,-0.573 0.065,-0.576 0.065,-0.576C0.065,-0.577 0.064,-0.578 0.064,-0.579C0.064,-0.587 0.064,-0.591 0.064,-0.592C0.064,-0.593 0.063,-0.594 0.063,-0.596C0.064,-0.605 0.063,-0.61 0.062,-0.612C0.06,-0.618 0.06,-0.623 0.061,-0.626C0.061,-0.629 0.061,-0.632 0.061,-0.634C0.059,-0.642 0.059,-0.646 0.059,-0.648C0.059,-0.65 0.06,-0.652 0.06,-0.654C0.058,-0.662 0.057,-0.667 0.057,-0.667C0.057,-0.668 0.057,-0.67 0.057,-0.671C0.057,-0.679 0.057,-0.684 0.056,-0.687C0.054,-0.69 0.053,-0.692 0.053,-0.694C0.055,-0.701 0.057,-0.705 0.058,-0.707C0.058,-0.708 0.059,-0.709 0.059,-0.71C0.065,-0.713 0.07,-0.716 0.072,-0.719C0.077,-0.72 0.081,-0.721 0.083,-0.721C0.084,-0.722 0.086,-0.722 0.089,-0.722C0.093,-0.72 0.096,-0.72 0.098,-0.721C0.1,-0.721 0.103,-0.721 0.105,-0.719C0.108,-0.72 0.111,-0.721 0.113,-0.72C0.116,-0.72 0.119,-0.719 0.122,-0.719C0.126,-0.719 0.13,-0.719 0.133,-0.72C0.136,-0.721 0.139,-0.72 0.143,-0.718C0.15,-0.718 0.155,-0.718 0.157,-0.719C0.158,-0.719 0.16,-0.72 0.161,-0.72C0.166,-0.72 0.169,-0.72 0.17,-0.721C0.171,-0.721 0.172,-0.722 0.173,-0.722C0.18,-0.722 0.186,-0.722 0.191,-0.72C0.197,-0.719 0.203,-0.718 0.21,-0.719C0.215,-0.719 0.22,-0.72 0.226,-0.722C0.231,-0.723 0.234,-0.723 0.236,-0.723C0.237,-0.722 0.239,-0.722 0.24,-0.722C0.244,-0.721 0.248,-0.721 0.252,-0.722C0.257,-0.722 0.261,-0.723 0.265,-0.723C0.267,-0.723 0.27,-0.722 0.272,-0.722C0.275,-0.721 0.278,-0.721 0.28,-0.721C0.284,-0.721 0.287,-0.721 0.29,-0.722C0.292,-0.723 0.295,-0.723 0.298,-0.722C0.302,-0.72 0.305,-0.72 0.306,-0.72C0.307,-0.721 0.308,-0.721 0.309,-0.721L0.334,-0.72C0.336,-0.72 0.338,-0.72 0.34,-0.721C0.342,-0.721 0.344,-0.722 0.346,-0.722L0.36,-0.721C0.364,-0.72 0.367,-0.719 0.37,-0.718C0.373,-0.717 0.376,-0.717 0.379,-0.718C0.387,-0.72 0.393,-0.722 0.396,-0.721C0.398,-0.721 0.401,-0.721 0.403,-0.722C0.409,-0.724 0.413,-0.725 0.415,-0.725L0.434,-0.728C0.436,-0.729 0.438,-0.73 0.44,-0.73C0.442,-0.73 0.444,-0.731 0.445,-0.731C0.452,-0.728 0.455,-0.725 0.455,-0.724C0.455,-0.723 0.455,-0.722 0.456,-0.721C0.457,-0.719 0.458,-0.717 0.459,-0.715C0.46,-0.714 0.46,-0.712 0.461,-0.709C0.464,-0.702 0.465,-0.697 0.467,-0.695C0.468,-0.693 0.469,-0.691 0.469,-0.688C0.471,-0.682 0.473,-0.678 0.473,-0.678C0.473,-0.677 0.473,-0.676 0.474,-0.675C0.476,-0.666 0.478,-0.661 0.478,-0.659C0.478,-0.656 0.479,-0.654 0.48,-0.65C0.482,-0.643 0.483,-0.637 0.484,-0.635C0.487,-0.63 0.488,-0.625 0.488,-0.622C0.491,-0.614 0.493,-0.605 0.493,-0.597C0.494,-0.592 0.494,-0.59 0.493,-0.589C0.493,-0.588 0.492,-0.587 0.491,-0.586C0.491,-0.578 0.491,-0.572 0.489,-0.567C0.488,-0.562 0.486,-0.558 0.483,-0.555C0.479,-0.553 0.476,-0.553 0.472,-0.553C0.469,-0.553 0.465,-0.552 0.461,-0.552C0.46,-0.551 0.457,-0.551 0.453,-0.551C0.448,-0.551 0.445,-0.551 0.441,-0.552C0.436,-0.553 0.432,-0.554 0.432,-0.555C0.431,-0.555 0.43,-0.556 0.429,-0.556C0.423,-0.558 0.419,-0.559 0.417,-0.559C0.416,-0.559 0.415,-0.559 0.415,-0.56C0.412,-0.561 0.41,-0.562 0.408,-0.562C0.405,-0.562 0.403,-0.562 0.4,-0.563C0.395,-0.565 0.392,-0.565 0.392,-0.565C0.392,-0.565 0.391,-0.564 0.39,-0.564C0.388,-0.564 0.386,-0.565 0.384,-0.565C0.382,-0.566 0.38,-0.567 0.378,-0.567C0.375,-0.568 0.373,-0.568 0.371,-0.568C0.368,-0.568 0.366,-0.568 0.362,-0.568C0.356,-0.568 0.352,-0.568 0.35,-0.568C0.348,-0.568 0.346,-0.567 0.344,-0.567L0.332,-0.568C0.326,-0.568 0.321,-0.569 0.315,-0.569C0.31,-0.569 0.306,-0.569 0.302,-0.568L0.295,-0.568C0.293,-0.568 0.291,-0.569 0.288,-0.571C0.286,-0.57 0.284,-0.57 0.282,-0.57C0.28,-0.571 0.278,-0.571 0.276,-0.571C0.269,-0.57 0.264,-0.57 0.263,-0.57C0.261,-0.571 0.26,-0.571 0.259,-0.571C0.25,-0.57 0.246,-0.569 0.246,-0.567C0.243,-0.569 0.24,-0.569 0.238,-0.568C0.236,-0.568 0.234,-0.567 0.23,-0.566C0.227,-0.561 0.225,-0.557 0.225,-0.555C0.224,-0.554 0.223,-0.552 0.223,-0.551L0.223,-0.533C0.224,-0.531 0.225,-0.527 0.225,-0.523L0.225,-0.514C0.225,-0.507 0.226,-0.503 0.226,-0.5C0.226,-0.497 0.227,-0.495 0.227,-0.492C0.225,-0.487 0.225,-0.481 0.227,-0.476C0.226,-0.474 0.226,-0.471 0.226,-0.468C0.226,-0.465 0.227,-0.462 0.227,-0.459L0.227,-0.448C0.227,-0.447 0.227,-0.445 0.227,-0.444C0.227,-0.442 0.227,-0.44 0.227,-0.437C0.232,-0.434 0.235,-0.432 0.236,-0.43C0.238,-0.429 0.239,-0.427 0.239,-0.426C0.246,-0.426 0.251,-0.426 0.252,-0.425C0.253,-0.425 0.255,-0.425 0.257,-0.425C0.263,-0.422 0.268,-0.422 0.27,-0.424C0.271,-0.424 0.274,-0.425 0.276,-0.424C0.279,-0.424 0.281,-0.424 0.282,-0.424L0.294,-0.424L0.307,-0.423C0.312,-0.424 0.315,-0.424 0.315,-0.424C0.315,-0.423 0.316,-0.423 0.317,-0.422C0.325,-0.423 0.329,-0.424 0.331,-0.423C0.333,-0.423 0.335,-0.423 0.336,-0.423C0.339,-0.424 0.342,-0.424 0.345,-0.424C0.347,-0.424 0.351,-0.424 0.355,-0.425C0.363,-0.424 0.368,-0.424 0.37,-0.423L0.382,-0.424L0.403,-0.425C0.41,-0.424 0.415,-0.424 0.416,-0.424L0.42,-0.424C0.422,-0.423 0.424,-0.423 0.428,-0.423C0.431,-0.423 0.434,-0.424 0.437,-0.425C0.44,-0.424 0.443,-0.423 0.445,-0.423C0.448,-0.424 0.451,-0.424 0.453,-0.424L0.469,-0.424C0.476,-0.421 0.48,-0.419 0.48,-0.419C0.481,-0.419 0.482,-0.419 0.483,-0.418Z" style="fill:rgb(16,41,91);fill-rule:nonzero;"/>
            </g>
            <g transform="matrix(0.178089,2.43657,-1.62999,0.266213,4095.69,-11839.1)">
                <path d="M4938.06,585.422C4918.65,585.422 4902.91,601.158 4902.91,620.569C4902.91,639.967 4918.66,655.716 4938.06,655.716C4950,655.716 4961.12,649.655 4967.59,639.623L4938.06,620.569L4938.06,585.422Z" style="fill:rgb(237,80,39);"/>
            </g>
            <g transform="matrix(0.514715,2.32717,-1.55681,0.769415,2116.08,-11523.9)">
                <path d="M4938.06,585.422C4918.65,585.422 4902.91,601.158 4902.91,620.569C4902.91,639.967 4918.66,655.716 4938.06,655.716C4957.47,655.716 4973.2,639.98 4973.2,620.569L4938.06,620.569L4938.06,585.422Z" style="fill:rgb(237,80,39);"/>
            </g>
            <g transform="matrix(0.901984,2.04689,-1.36931,1.34832,643.912,-10690.3)">
                <path d="M4903.83,629.437C4909.3,626.157 4915.84,623.749 4923.42,623.144C4930.56,622.574 4938.63,623.565 4947.43,628.206L4934.16,654.823L4935.28,655.566C4937.91,651.803 4940.71,643.154 4947.62,636.843C4950.76,633.974 4954.44,632.155 4958.12,630.796C4962.65,629.124 4966.53,627.541 4972.63,628.021C4972.63,628.021 4973.2,622.557 4973.2,620.569L4938.06,620.569L4938.06,585.422C4918.65,585.422 4902.91,601.158 4902.91,620.569C4902.91,623.28 4903.83,629.437 4903.83,629.437Z" style="fill:rgb(237,80,39);"/>
            </g>
            <g transform="matrix(-1.28601,1.5206,-1.01723,-1.92237,10843.4,-5863.43)">
                <path d="M4938.06,585.422C4918.65,585.422 4902.91,601.158 4902.91,620.569C4902.91,639.967 4918.66,655.716 4938.06,655.716C4953.26,655.716 4966.74,645.944 4971.46,631.497L4938.06,620.569L4938.06,585.422Z" style="fill:rgb(237,80,39);"/>
            </g>
            <g transform="matrix(0.514715,2.32717,-1.55681,0.769415,2452.11,-11705.6)">
                <path d="M4947.08,586.441C4926.51,581.404 4901.69,595.853 4902.91,620.569C4903.69,636.463 4913.79,649.933 4928.1,654.26C4931.47,647.852 4935.1,641.685 4944.45,636.813C4952.73,632.499 4961.71,631.192 4969.98,632.856C4971.28,629.635 4972.79,627.069 4973.09,623.456C4973.16,622.504 4973.2,621.541 4973.2,620.569L4946.04,621.318L4947.08,586.441Z" style="fill:rgb(237,80,39);"/>
            </g>
            <g transform="matrix(0.211671,2.89603,-1.93736,0.316414,4332.39,-14205.3)">
                <path d="M4938.06,585.422C4918.65,585.422 4902.91,601.158 4902.91,620.569C4902.91,639.967 4918.66,655.716 4938.06,655.716C4950,655.716 4961.12,649.655 4967.59,639.623L4938.06,620.569L4938.06,585.422Z" style="fill:rgb(237,80,39);"/>
            </g>
            <g transform="matrix(1.29108,1.51097,-1.01079,1.92995,-1438.21,-8560.51)">
                <path d="M4938.06,585.422C4918.65,585.422 4902.91,601.158 4902.91,620.569C4902.91,639.967 4918.66,655.716 4938.06,655.716C4950,655.716 4961.12,649.655 4967.59,639.623L4938.06,620.569L4938.06,585.422Z" style="fill:rgb(237,80,39);"/>
            </g>
            <g transform="matrix(247.368,36.403,-24.3525,369.775,4138.99,496.87)">
                <path d="M0.028,-0.315C0.031,-0.323 0.032,-0.328 0.032,-0.333C0.032,-0.338 0.033,-0.341 0.035,-0.344L0.035,-0.356C0.038,-0.364 0.04,-0.369 0.04,-0.371C0.041,-0.378 0.042,-0.382 0.042,-0.383C0.042,-0.384 0.042,-0.385 0.043,-0.387C0.044,-0.389 0.045,-0.394 0.047,-0.399C0.049,-0.407 0.051,-0.413 0.053,-0.416C0.054,-0.419 0.055,-0.422 0.057,-0.425C0.06,-0.43 0.062,-0.433 0.062,-0.435C0.062,-0.436 0.062,-0.437 0.063,-0.438C0.065,-0.44 0.066,-0.443 0.068,-0.445C0.07,-0.447 0.071,-0.45 0.071,-0.453C0.076,-0.46 0.081,-0.464 0.085,-0.465C0.088,-0.471 0.09,-0.475 0.092,-0.476C0.094,-0.477 0.094,-0.479 0.094,-0.482C0.096,-0.484 0.098,-0.485 0.1,-0.487C0.101,-0.488 0.103,-0.49 0.106,-0.491C0.109,-0.497 0.111,-0.5 0.111,-0.501C0.111,-0.502 0.112,-0.502 0.113,-0.503C0.115,-0.504 0.117,-0.506 0.119,-0.508C0.121,-0.51 0.123,-0.512 0.125,-0.514C0.13,-0.517 0.134,-0.519 0.136,-0.519C0.142,-0.523 0.147,-0.526 0.15,-0.527C0.154,-0.529 0.156,-0.531 0.157,-0.534C0.16,-0.534 0.162,-0.535 0.164,-0.535C0.165,-0.536 0.167,-0.536 0.169,-0.537C0.175,-0.54 0.179,-0.542 0.18,-0.543C0.181,-0.544 0.182,-0.544 0.183,-0.544C0.184,-0.545 0.186,-0.547 0.188,-0.548C0.189,-0.549 0.191,-0.55 0.192,-0.552C0.196,-0.552 0.2,-0.553 0.203,-0.555L0.215,-0.557C0.221,-0.559 0.225,-0.56 0.226,-0.56C0.227,-0.559 0.229,-0.559 0.23,-0.56C0.235,-0.56 0.238,-0.561 0.239,-0.562C0.241,-0.563 0.242,-0.564 0.243,-0.564C0.248,-0.565 0.254,-0.566 0.261,-0.567L0.273,-0.571C0.279,-0.571 0.283,-0.571 0.286,-0.571C0.289,-0.572 0.293,-0.572 0.296,-0.572C0.299,-0.572 0.301,-0.572 0.304,-0.571C0.306,-0.571 0.309,-0.57 0.312,-0.569L0.324,-0.569C0.327,-0.569 0.331,-0.569 0.336,-0.568C0.339,-0.566 0.341,-0.565 0.344,-0.564C0.347,-0.563 0.35,-0.562 0.354,-0.561C0.361,-0.557 0.367,-0.554 0.37,-0.552C0.378,-0.55 0.384,-0.548 0.388,-0.545C0.394,-0.541 0.398,-0.539 0.399,-0.538C0.401,-0.537 0.402,-0.537 0.403,-0.537C0.412,-0.533 0.418,-0.529 0.422,-0.526C0.426,-0.523 0.429,-0.521 0.431,-0.519C0.432,-0.517 0.433,-0.516 0.435,-0.516C0.437,-0.515 0.438,-0.514 0.44,-0.513L0.449,-0.5C0.452,-0.497 0.454,-0.495 0.455,-0.494C0.456,-0.493 0.457,-0.493 0.458,-0.493C0.461,-0.488 0.463,-0.485 0.463,-0.484C0.464,-0.483 0.465,-0.482 0.466,-0.481C0.471,-0.474 0.474,-0.47 0.474,-0.47C0.478,-0.463 0.48,-0.459 0.481,-0.458C0.482,-0.456 0.483,-0.454 0.484,-0.451C0.486,-0.445 0.488,-0.44 0.489,-0.438C0.49,-0.437 0.491,-0.435 0.491,-0.433C0.493,-0.429 0.494,-0.427 0.495,-0.425C0.495,-0.423 0.496,-0.422 0.498,-0.421C0.497,-0.418 0.498,-0.414 0.499,-0.411C0.5,-0.408 0.502,-0.405 0.503,-0.402C0.503,-0.4 0.504,-0.396 0.505,-0.391C0.506,-0.383 0.507,-0.378 0.507,-0.376C0.508,-0.374 0.508,-0.372 0.508,-0.371C0.51,-0.367 0.511,-0.364 0.51,-0.363C0.51,-0.361 0.51,-0.359 0.511,-0.357C0.511,-0.355 0.511,-0.353 0.512,-0.351C0.512,-0.349 0.513,-0.347 0.514,-0.345C0.515,-0.334 0.515,-0.321 0.514,-0.308C0.513,-0.303 0.513,-0.299 0.512,-0.297C0.512,-0.294 0.511,-0.291 0.51,-0.287C0.503,-0.285 0.499,-0.283 0.496,-0.281C0.492,-0.278 0.488,-0.276 0.484,-0.276C0.481,-0.276 0.479,-0.275 0.477,-0.271C0.471,-0.273 0.469,-0.273 0.468,-0.271C0.468,-0.27 0.467,-0.27 0.466,-0.27C0.459,-0.267 0.454,-0.266 0.453,-0.266C0.452,-0.266 0.451,-0.265 0.45,-0.264C0.448,-0.264 0.445,-0.264 0.443,-0.263C0.441,-0.261 0.438,-0.26 0.436,-0.26C0.427,-0.26 0.42,-0.259 0.413,-0.257L0.383,-0.248C0.378,-0.245 0.373,-0.244 0.369,-0.244C0.363,-0.24 0.358,-0.238 0.355,-0.238C0.353,-0.237 0.351,-0.237 0.349,-0.235C0.345,-0.233 0.34,-0.232 0.335,-0.23C0.33,-0.228 0.325,-0.228 0.319,-0.229C0.318,-0.227 0.317,-0.227 0.315,-0.227C0.313,-0.227 0.311,-0.227 0.309,-0.227C0.302,-0.224 0.299,-0.222 0.299,-0.222C0.299,-0.222 0.299,-0.222 0.298,-0.222C0.295,-0.22 0.291,-0.22 0.288,-0.219C0.285,-0.219 0.282,-0.218 0.278,-0.217C0.276,-0.215 0.274,-0.215 0.27,-0.214C0.266,-0.213 0.263,-0.212 0.261,-0.21C0.259,-0.211 0.257,-0.21 0.255,-0.209C0.253,-0.208 0.251,-0.208 0.248,-0.207C0.245,-0.209 0.243,-0.21 0.241,-0.209C0.24,-0.209 0.239,-0.209 0.237,-0.21C0.235,-0.213 0.232,-0.214 0.23,-0.214C0.229,-0.215 0.227,-0.215 0.226,-0.216C0.221,-0.22 0.218,-0.224 0.218,-0.226L0.209,-0.235C0.208,-0.239 0.206,-0.241 0.204,-0.243C0.201,-0.245 0.2,-0.248 0.198,-0.251C0.193,-0.256 0.19,-0.259 0.19,-0.262C0.186,-0.268 0.183,-0.272 0.183,-0.272C0.183,-0.273 0.183,-0.274 0.183,-0.275C0.18,-0.279 0.177,-0.282 0.175,-0.285C0.172,-0.288 0.17,-0.293 0.169,-0.298C0.166,-0.29 0.164,-0.285 0.165,-0.282C0.165,-0.28 0.165,-0.277 0.165,-0.274C0.166,-0.269 0.167,-0.264 0.169,-0.261C0.168,-0.259 0.167,-0.258 0.168,-0.255C0.169,-0.253 0.169,-0.251 0.169,-0.248C0.17,-0.244 0.17,-0.241 0.17,-0.24C0.17,-0.238 0.17,-0.237 0.171,-0.235L0.173,-0.224C0.177,-0.215 0.179,-0.21 0.179,-0.208C0.18,-0.207 0.18,-0.205 0.181,-0.204C0.185,-0.199 0.188,-0.195 0.189,-0.191L0.194,-0.181C0.2,-0.174 0.202,-0.169 0.203,-0.168C0.208,-0.163 0.211,-0.159 0.214,-0.156C0.222,-0.15 0.227,-0.145 0.228,-0.143C0.234,-0.14 0.238,-0.137 0.24,-0.135C0.244,-0.133 0.247,-0.132 0.248,-0.132C0.249,-0.131 0.25,-0.131 0.251,-0.13C0.252,-0.129 0.254,-0.128 0.256,-0.127C0.258,-0.126 0.259,-0.125 0.261,-0.124C0.264,-0.123 0.268,-0.123 0.271,-0.123C0.279,-0.121 0.285,-0.12 0.29,-0.121C0.294,-0.121 0.298,-0.12 0.301,-0.119C0.306,-0.119 0.311,-0.12 0.316,-0.121C0.32,-0.122 0.322,-0.123 0.323,-0.123C0.325,-0.123 0.326,-0.124 0.327,-0.125C0.331,-0.126 0.333,-0.126 0.334,-0.126C0.335,-0.127 0.337,-0.127 0.338,-0.128C0.344,-0.131 0.347,-0.133 0.348,-0.133C0.348,-0.134 0.349,-0.134 0.351,-0.136C0.358,-0.138 0.361,-0.14 0.361,-0.14C0.366,-0.143 0.368,-0.145 0.369,-0.147C0.37,-0.149 0.371,-0.15 0.372,-0.151C0.377,-0.155 0.379,-0.156 0.38,-0.157C0.381,-0.157 0.382,-0.158 0.382,-0.159C0.387,-0.161 0.39,-0.162 0.39,-0.163C0.39,-0.163 0.391,-0.163 0.393,-0.162C0.397,-0.163 0.4,-0.164 0.401,-0.164C0.402,-0.163 0.403,-0.163 0.403,-0.162C0.405,-0.161 0.407,-0.159 0.409,-0.158C0.411,-0.156 0.413,-0.155 0.416,-0.153C0.42,-0.149 0.422,-0.146 0.423,-0.145C0.424,-0.144 0.424,-0.143 0.426,-0.143C0.429,-0.136 0.431,-0.133 0.431,-0.133C0.434,-0.128 0.436,-0.126 0.437,-0.125C0.438,-0.125 0.439,-0.124 0.439,-0.123C0.442,-0.117 0.444,-0.113 0.444,-0.113C0.445,-0.112 0.446,-0.112 0.447,-0.11C0.449,-0.106 0.451,-0.104 0.453,-0.103C0.454,-0.101 0.456,-0.1 0.457,-0.098C0.459,-0.096 0.46,-0.095 0.461,-0.093C0.462,-0.092 0.464,-0.09 0.466,-0.089C0.468,-0.08 0.47,-0.075 0.471,-0.074C0.472,-0.072 0.473,-0.07 0.474,-0.066C0.474,-0.065 0.473,-0.063 0.473,-0.062C0.472,-0.06 0.472,-0.058 0.472,-0.056C0.467,-0.049 0.464,-0.044 0.463,-0.042C0.462,-0.039 0.46,-0.037 0.457,-0.036C0.454,-0.034 0.451,-0.033 0.448,-0.031C0.444,-0.03 0.442,-0.027 0.44,-0.023C0.438,-0.023 0.436,-0.022 0.434,-0.022C0.432,-0.022 0.431,-0.021 0.431,-0.018C0.424,-0.015 0.421,-0.014 0.42,-0.014C0.415,-0.012 0.411,-0.01 0.408,-0.008C0.4,-0.005 0.395,-0.003 0.393,-0.002C0.391,-0.001 0.388,0.001 0.386,0.002C0.38,0.002 0.375,0.003 0.371,0.004L0.349,0.01C0.339,0.012 0.332,0.013 0.329,0.013C0.326,0.013 0.322,0.013 0.317,0.015C0.315,0.015 0.313,0.016 0.31,0.017C0.306,0.017 0.304,0.018 0.303,0.019C0.299,0.019 0.296,0.018 0.293,0.018C0.291,0.018 0.288,0.017 0.285,0.016C0.276,0.016 0.272,0.016 0.272,0.018C0.271,0.016 0.268,0.016 0.266,0.016C0.264,0.016 0.262,0.015 0.26,0.015C0.253,0.013 0.248,0.012 0.245,0.011L0.234,0.011C0.231,0.01 0.228,0.009 0.226,0.008C0.223,0.007 0.22,0.006 0.217,0.005C0.21,0.003 0.207,0.002 0.206,0.002C0.205,0.002 0.204,0.002 0.203,0.001C0.197,-0.002 0.192,-0.005 0.189,-0.006C0.181,-0.008 0.176,-0.01 0.175,-0.011C0.172,-0.013 0.169,-0.015 0.168,-0.015C0.167,-0.015 0.165,-0.015 0.164,-0.016C0.161,-0.019 0.159,-0.021 0.157,-0.021C0.156,-0.022 0.155,-0.023 0.153,-0.024C0.149,-0.028 0.147,-0.03 0.146,-0.031C0.144,-0.031 0.143,-0.031 0.142,-0.031C0.136,-0.037 0.133,-0.041 0.132,-0.042C0.131,-0.043 0.129,-0.045 0.128,-0.046C0.125,-0.05 0.122,-0.053 0.121,-0.055C0.12,-0.057 0.118,-0.059 0.116,-0.061C0.111,-0.067 0.108,-0.071 0.106,-0.073C0.105,-0.074 0.104,-0.076 0.102,-0.077C0.101,-0.079 0.1,-0.081 0.098,-0.082C0.097,-0.083 0.095,-0.085 0.094,-0.086C0.091,-0.091 0.09,-0.094 0.089,-0.096C0.089,-0.097 0.088,-0.097 0.086,-0.097C0.084,-0.103 0.081,-0.107 0.077,-0.111C0.075,-0.116 0.074,-0.118 0.074,-0.119C0.073,-0.12 0.073,-0.121 0.073,-0.122C0.069,-0.128 0.067,-0.131 0.066,-0.132C0.061,-0.14 0.057,-0.145 0.056,-0.148C0.054,-0.152 0.052,-0.155 0.052,-0.155C0.051,-0.156 0.05,-0.157 0.049,-0.157C0.046,-0.168 0.044,-0.174 0.042,-0.176C0.039,-0.179 0.038,-0.182 0.039,-0.187C0.038,-0.194 0.036,-0.198 0.035,-0.2C0.033,-0.202 0.032,-0.204 0.031,-0.206L0.031,-0.219C0.031,-0.221 0.03,-0.226 0.03,-0.231L0.026,-0.248C0.026,-0.256 0.027,-0.26 0.027,-0.261C0.025,-0.265 0.025,-0.27 0.026,-0.276C0.027,-0.282 0.027,-0.288 0.027,-0.293C0.028,-0.297 0.028,-0.3 0.028,-0.303C0.028,-0.306 0.029,-0.309 0.03,-0.311L0.028,-0.315ZM0.343,-0.386C0.341,-0.387 0.341,-0.389 0.34,-0.391C0.34,-0.393 0.339,-0.395 0.338,-0.397C0.335,-0.399 0.332,-0.402 0.331,-0.405C0.329,-0.408 0.326,-0.41 0.322,-0.411C0.321,-0.414 0.319,-0.415 0.315,-0.416C0.311,-0.417 0.309,-0.418 0.307,-0.421C0.303,-0.422 0.3,-0.422 0.298,-0.422C0.295,-0.422 0.292,-0.422 0.289,-0.423C0.282,-0.424 0.278,-0.424 0.276,-0.423C0.271,-0.423 0.268,-0.423 0.266,-0.422C0.264,-0.421 0.262,-0.421 0.26,-0.42C0.258,-0.419 0.257,-0.419 0.254,-0.419C0.252,-0.42 0.25,-0.42 0.249,-0.419C0.241,-0.414 0.235,-0.41 0.231,-0.409C0.226,-0.402 0.222,-0.398 0.221,-0.396C0.217,-0.392 0.215,-0.389 0.214,-0.389C0.213,-0.388 0.213,-0.387 0.212,-0.386C0.207,-0.38 0.203,-0.376 0.202,-0.373C0.196,-0.366 0.193,-0.362 0.191,-0.361C0.19,-0.359 0.189,-0.357 0.188,-0.355C0.186,-0.353 0.185,-0.351 0.183,-0.35C0.18,-0.342 0.178,-0.338 0.177,-0.336C0.176,-0.335 0.176,-0.333 0.176,-0.33C0.18,-0.331 0.184,-0.333 0.188,-0.333C0.192,-0.334 0.196,-0.336 0.199,-0.337C0.204,-0.337 0.207,-0.337 0.208,-0.338C0.21,-0.339 0.212,-0.34 0.214,-0.341C0.217,-0.342 0.22,-0.343 0.223,-0.343C0.225,-0.344 0.229,-0.344 0.233,-0.345C0.24,-0.347 0.244,-0.349 0.247,-0.35C0.249,-0.35 0.251,-0.351 0.253,-0.352C0.256,-0.353 0.26,-0.354 0.263,-0.354C0.267,-0.354 0.27,-0.354 0.271,-0.355C0.281,-0.358 0.287,-0.36 0.29,-0.36C0.295,-0.36 0.299,-0.361 0.302,-0.361C0.309,-0.364 0.313,-0.365 0.315,-0.365C0.321,-0.366 0.326,-0.367 0.331,-0.369C0.335,-0.37 0.339,-0.372 0.342,-0.375C0.345,-0.378 0.346,-0.381 0.345,-0.382C0.344,-0.383 0.343,-0.384 0.343,-0.386Z" style="fill:rgb(82,166,231);fill-rule:nonzero;"/>
            </g>
        </g>
    </g>
</svg>
