<?xml version="1.0" encoding="UTF-8" standalone="no"?>
<!DOCTYPE svg PUBLIC "-//W3C//DTD SVG 1.1//EN" "http://www.w3.org/Graphics/SVG/1.1/DTD/svg11.dtd">
<svg width="100%" height="100%" viewBox="0 0 1080 1080" version="1.1" xmlns="http://www.w3.org/2000/svg" xmlns:xlink="http://www.w3.org/1999/xlink" xml:space="preserve" xmlns:serif="http://www.serif.com/" style="fill-rule:evenodd;clip-rule:evenodd;stroke-linejoin:round;stroke-miterlimit:2;">
    <g transform="matrix(1.58609,0,0,1.58609,-32.2711,84.7344)">
        <path d="M509.477,259.752L523.771,248.421C523.771,248.421 495.424,242.883 480.81,242.879C437.143,242.865 426.89,258.702 426.89,267.415C426.89,276.128 439.366,291.912 480.81,291.951C495.317,291.965 523.771,284.989 523.771,284.989L509.477,274.221C500.085,278.963 492.269,281.274 480.81,280.617C471.773,280.1 456.292,276.378 456.418,267.415C456.541,258.676 471.337,254.635 480.81,254.555C491.209,254.467 500.582,256.183 509.477,259.752Z" style="fill:rgb(251,236,255);"/>
    </g>
    <g transform="matrix(1.58609,0,0,1.58609,-32.2711,84.7344)">
        <path d="M71.668,311.54C137.655,350.389 246.977,361.967 335.434,364.315C439.579,367.08 562.949,357.521 649.946,313.516C604.663,385.103 439.52,410.578 335.434,406.089C246.924,402.271 128.067,383.934 71.668,311.54Z" style="fill:rgb(251,236,255);"/>
    </g>
    <g transform="matrix(1.58609,0,0,1.58609,-32.2711,84.7344)">
        <path d="M165.14,199.295C197.518,189.03 301.684,179.497 360.807,179.101C428.743,178.645 523.907,189.136 555.516,198.311C495.079,174.361 426.771,167.291 360.807,167.491C296.638,167.686 208.846,178.349 165.14,199.295Z" style="fill:rgb(251,236,255);"/>
    </g>
    <g transform="matrix(1.58609,0,0,1.58609,-32.2711,84.7344)">
        <path d="M239.366,242.879L195.868,291.951L229.389,291.951L237.033,283.319L271.224,283.319L278.844,291.951L312.191,291.951L268.623,242.879L239.366,242.879ZM253.999,263.839L260.976,271.794L247.021,271.794L253.999,263.839Z" style="fill:rgb(251,236,255);"/>
    </g>
    <g transform="matrix(1.58609,0,0,1.58609,-32.2711,84.7344)">
        <path d="M323.172,291.951L323.344,242.879L395.828,242.879C409.401,242.903 416.773,251.401 416.89,258.006C417.003,264.333 411.437,272.663 398.73,272.612L419.891,291.951L385.365,291.951L368.358,274.649L355.107,274.649L355.107,291.951L323.172,291.951ZM378.532,254.33L355.085,254.33L355.085,265.838L378.532,265.838C388.324,265.74 387.816,254.145 378.532,254.33Z" style="fill:rgb(251,236,255);"/>
    </g>
</svg>
